<svg width="20" height="20" viewBox="0 0 400 401" fill="none" xmlns="http://www.w3.org/2000/svg">
                                    <path d="M375 150H366.667V133.333C366.667 87.3833 329.283 50 283.333 50H216.667V16.6667C216.667 7.46667 209.217 0 200 0C190.783 0 183.333 7.46667 183.333 16.6667V50H116.667C70.7167 50 33.3333 87.3833 33.3333 133.333V150H25C11.2167 150 0 161.217 0 175V225C0 238.783 11.2167 250 25 250H33.3333V266.667C33.3333 312.617 70.7167 350 116.667 350H244.95L311 394.033C317 398.033 323.917 400.05 330.85 400.05C336.65 400.05 342.45 398.65 347.767 395.8C359.417 389.55 366.667 377.467 366.667 364.233V249.983H375C388.783 249.983 400 238.767 400 224.983V174.983C400 161.2 388.783 149.983 375 149.983V150ZM141.667 133.333C155.467 133.333 166.667 144.533 166.667 158.333C166.667 172.133 155.467 183.333 141.667 183.333C127.867 183.333 116.667 172.133 116.667 158.333C116.667 144.533 127.867 133.333 141.667 133.333ZM275.517 259.55C258.233 270.4 231.083 283.333 200 283.333C168.917 283.333 141.767 270.4 124.483 259.55C116.683 254.667 114.333 244.367 119.233 236.583C124.133 228.8 134.417 226.433 142.2 231.317C155.783 239.85 176.85 250 200.017 250C223.183 250 244.233 239.85 257.833 231.317C265.6 226.417 275.917 228.783 280.8 236.583C285.7 244.383 283.333 254.667 275.55 259.55H275.517ZM258.333 183.333C244.533 183.333 233.333 172.133 233.333 158.333C233.333 144.533 244.533 133.333 258.333 133.333C272.133 133.333 283.333 144.533 283.333 158.333C283.333 172.133 272.133 183.333 258.333 183.333Z" fill="#38AF79" />
                                </svg>