<svg width="364" height="342" viewBox="0 0 364 342" fill="none" xmlns="http://www.w3.org/2000/svg">
<path d="M64.332 43.0026C69.99 43.0026 75.4162 40.755 79.417 36.7542C83.4178 32.7534 85.6654 27.3272 85.6654 21.6693C85.6654 16.0113 83.4178 10.5851 79.417 6.58433C75.4162 2.58355 69.99 0.335938 64.332 0.335938H21.6654C16.0074 0.335938 10.5812 2.58355 6.58042 6.58433C2.57965 10.5851 0.332031 16.0113 0.332031 21.6693V320.336C0.332031 325.994 2.57965 331.42 6.58042 335.421C10.5812 339.422 16.0074 341.669 21.6654 341.669H64.332C69.99 341.669 75.4162 339.422 79.417 335.421C83.4178 331.42 85.6654 325.994 85.6654 320.336C85.6654 314.678 83.4178 309.252 79.417 305.251C75.4162 301.25 69.99 299.003 64.332 299.003H42.9987V43.0026H64.332ZM359.159 158.629L298.999 73.2959C295.736 68.6967 290.785 65.5763 285.229 64.6169C279.672 63.6575 273.961 64.9371 269.345 68.1759C267.038 69.7927 265.074 71.8505 263.566 74.2305C262.059 76.6104 261.037 79.2655 260.561 82.0423C260.085 84.8191 260.164 87.6627 260.793 90.409C261.422 93.1552 262.588 95.7497 264.225 98.0426L300.919 149.669H128.332C122.674 149.669 117.248 151.917 113.247 155.918C109.246 159.918 106.999 165.345 106.999 171.003C106.999 176.661 109.246 182.087 113.247 186.088C117.248 190.088 122.674 192.336 128.332 192.336H298.999L260.599 243.536C258.918 245.777 257.695 248.328 256.999 251.041C256.304 253.755 256.15 256.58 256.546 259.353C256.943 262.126 257.881 264.794 259.309 267.205C260.736 269.616 262.624 271.722 264.865 273.403C268.558 276.172 273.049 277.669 277.665 277.669C280.977 277.669 284.244 276.898 287.206 275.417C290.168 273.936 292.745 271.785 294.732 269.136L358.732 183.803C361.464 180.194 362.978 175.811 363.055 171.286C363.132 166.76 361.767 162.328 359.159 158.629Z" fill="white"/>
</svg>
