<svg width="428" height="428" viewBox="0 0 428 428" fill="none" xmlns="http://www.w3.org/2000/svg">
<path d="M412.828 161.731L372.508 148.291L391.495 110.317C393.419 106.343 394.063 101.869 393.337 97.5126C392.611 93.1565 390.551 89.1331 387.441 85.9975L342.001 40.5575C338.849 37.402 334.787 35.3139 330.386 34.5868C325.986 33.8597 321.468 34.5303 317.468 36.5041L279.495 55.4908L266.055 15.1708C264.635 10.968 261.941 7.31215 258.347 4.71209C254.753 2.11204 250.437 0.69708 246.001 0.664134H182.001C177.529 0.652589 173.166 2.04694 169.529 4.6501C165.893 7.25325 163.166 10.9336 161.735 15.1708L148.295 55.4908L110.321 36.5041C106.347 34.5794 101.873 33.9357 97.5165 34.6617C93.1604 35.3877 89.137 37.4477 86.0014 40.5575L40.5614 85.9975C37.4059 89.1498 35.3178 93.2119 34.5907 97.6125C33.8637 102.013 34.5342 106.531 36.508 110.531L55.4947 148.504L15.1747 161.944C10.9719 163.364 7.31605 166.058 4.716 169.652C2.11594 173.246 0.700986 177.562 0.66804 181.997V245.997C0.656495 250.47 2.05084 254.833 4.654 258.47C7.25716 262.106 10.9375 264.833 15.1747 266.264L55.4947 279.704L36.508 317.677C34.5833 321.652 33.9396 326.126 34.6656 330.482C35.3916 334.838 37.4516 338.862 40.5614 341.997L86.0014 387.437C89.1537 390.593 93.2158 392.681 97.6164 393.408C102.017 394.135 106.535 393.465 110.535 391.491L148.508 372.504L161.948 412.824C163.379 417.061 166.106 420.742 169.743 423.345C173.379 425.948 177.742 427.342 182.215 427.331H246.215C250.687 427.342 255.05 425.948 258.687 423.345C262.324 420.742 265.05 417.061 266.481 412.824L279.921 372.504L317.895 391.491C321.844 393.367 326.274 393.984 330.586 393.259C334.898 392.534 338.883 390.502 342.001 387.437L387.441 341.997C390.597 338.845 392.685 334.783 393.412 330.382C394.139 325.982 393.469 321.464 391.495 317.464L372.508 279.491L412.828 266.051C417.031 264.631 420.687 261.937 423.287 258.343C425.887 254.749 427.302 250.433 427.335 245.997V181.997C427.346 177.525 425.952 173.162 423.349 169.525C420.746 165.889 417.065 163.162 412.828 161.731ZM384.668 230.637L359.068 239.171C353.181 241.08 347.78 244.248 343.24 248.453C338.699 252.658 335.128 257.801 332.774 263.524C330.42 269.248 329.338 275.415 329.606 281.598C329.873 287.781 331.482 293.832 334.321 299.331L346.481 323.651L323.015 347.117L299.335 334.317C293.864 331.592 287.871 330.073 281.763 329.865C275.654 329.657 269.572 330.763 263.928 333.11C258.284 335.456 253.211 338.988 249.05 343.466C244.89 347.944 241.74 353.263 239.815 359.064L231.281 384.664H197.361L188.828 359.064C186.919 353.177 183.751 347.776 179.546 343.236C175.341 338.696 170.198 335.124 164.474 332.77C158.751 330.416 152.584 329.335 146.401 329.602C140.218 329.869 134.167 331.478 128.668 334.317L104.348 346.477L80.8814 323.011L93.6814 299.331C96.5207 293.832 98.1298 287.781 98.397 281.598C98.6642 275.415 97.5832 269.248 95.2289 263.524C92.8745 257.801 89.3033 252.658 84.7629 248.453C80.2224 244.248 74.8215 241.08 68.9347 239.171L43.3347 230.637V197.357L68.9347 188.824C74.8215 186.915 80.2224 183.747 84.7629 179.542C89.3033 175.337 92.8745 170.194 95.2289 164.47C97.5832 158.747 98.6642 152.58 98.397 146.397C98.1298 140.214 96.5207 134.163 93.6814 128.664L81.5214 104.984L104.988 81.5175L128.668 93.6775C134.167 96.5168 140.218 98.1259 146.401 98.3931C152.584 98.6603 158.751 97.5793 164.474 95.2249C170.198 92.8706 175.341 89.2994 179.546 84.759C183.751 80.2185 186.919 74.8176 188.828 68.9308L197.361 43.3308H230.641L239.175 68.9308C241.084 74.8176 244.251 80.2185 248.457 84.759C252.662 89.2994 257.805 92.8706 263.528 95.2249C269.252 97.5793 275.419 98.6603 281.602 98.3931C287.785 98.1259 293.836 96.5168 299.335 93.6775L323.655 81.5175L347.121 104.984L334.321 128.664C331.596 134.135 330.077 140.128 329.869 146.236C329.661 152.345 330.767 158.427 333.114 164.071C335.46 169.714 338.992 174.788 343.47 178.948C347.948 183.109 353.267 186.258 359.068 188.184L384.668 196.717V230.637ZM214.001 128.664C197.124 128.664 180.626 133.669 166.593 143.045C152.56 152.422 141.622 165.749 135.164 181.342C128.705 196.934 127.015 214.092 130.308 230.645C133.6 247.198 141.728 262.403 153.662 274.337C165.596 286.271 180.801 294.399 197.354 297.691C213.907 300.984 231.064 299.294 246.657 292.835C262.25 286.376 275.577 275.439 284.953 261.406C294.33 247.373 299.335 230.875 299.335 213.997C299.335 191.366 290.344 169.661 274.341 153.658C258.338 137.655 236.633 128.664 214.001 128.664ZM214.001 256.664C205.563 256.664 197.314 254.162 190.297 249.473C183.281 244.785 177.812 238.122 174.582 230.325C171.353 222.529 170.508 213.95 172.155 205.674C173.801 197.397 177.864 189.795 183.831 183.828C189.799 177.861 197.401 173.797 205.677 172.151C213.954 170.504 222.533 171.349 230.329 174.579C238.125 177.808 244.789 183.277 249.477 190.293C254.166 197.31 256.668 205.559 256.668 213.997C256.668 225.313 252.173 236.166 244.171 244.167C236.17 252.169 225.317 256.664 214.001 256.664Z" fill="white"/>
</svg>
