<svg width="500" height="500" viewBox="0 0 500 500" fill="none" xmlns="http://www.w3.org/2000/svg">
<path d="M442.77 110.121C439.581 105.492 436.056 100.998 432.151 96.6622C400.728 61.7662 359.644 47.0042 312.706 37.1102C264.229 26.8912 207.469 23.6762 160.93 42.1502C149.975 46.4992 139.589 52.3232 131.323 60.2142C100.189 89.9352 89.5152 139.738 54.8232 179.099C20.1312 218.459 3.23021 267.459 34.3642 314.049C47.5402 333.766 64.3392 350.032 84.2182 364.303C108.694 381.874 129.805 405.575 158.089 419.292C187.817 433.71 227.409 438.733 260.307 432.131C297.841 424.598 319.856 394.648 348.509 374.221C371.097 358.117 398.117 347.578 420.251 330.968C454.162 305.522 479.871 264.621 475.573 224.082C471.404 184.756 466.004 143.846 442.77 110.121Z" fill="#C82121"/>
<path opacity="0.7" d="M442.77 110.121C439.581 105.492 436.056 100.998 432.151 96.6622C400.728 61.7662 359.644 47.0042 312.706 37.1102C264.229 26.8912 207.469 23.6762 160.93 42.1502C149.975 46.4992 139.589 52.3232 131.323 60.2142C100.189 89.9352 89.5152 139.738 54.8232 179.099C20.1312 218.459 3.23021 267.459 34.3642 314.049C47.5402 333.766 64.3392 350.032 84.2182 364.303C108.694 381.874 129.805 405.575 158.089 419.292C187.817 433.71 227.409 438.733 260.307 432.131C297.841 424.598 319.856 394.648 348.509 374.221C371.097 358.117 398.117 347.578 420.251 330.968C454.162 305.522 479.871 264.621 475.573 224.082C471.404 184.756 466.004 143.846 442.77 110.121Z" fill="white"/>
<path d="M450.734 441H462" stroke="#263238" stroke-miterlimit="10" stroke-linecap="round" stroke-linejoin="round"/>
<path d="M113.895 441H446.939" stroke="#263238" stroke-miterlimit="10" stroke-linecap="round" stroke-linejoin="round"/>
<path d="M49 441H107.926" stroke="#263238" stroke-miterlimit="10" stroke-linecap="round" stroke-linejoin="round"/>
<path d="M450.035 373.04C450.052 373.087 452.686 371.036 452.837 370.888C454.588 369.169 456.961 364.82 455.73 362.363C454.844 360.593 452.633 360.198 451.03 361.215C449.392 362.254 448.694 364.539 448.544 366.366C448.368 368.51 450.034 373.037 450.035 373.04Z" fill="#263238"/>
<path d="M472.103 367.979C470.118 366.079 465.263 367.064 463.104 368.23C462.918 368.331 460.181 370.243 460.221 370.273C460.221 370.273 460.259 370.301 460.268 370.308C459.5 370.457 458.679 370.627 457.785 370.83C456.137 371.218 454.279 371.671 452.29 372.301C450.301 372.925 448.157 373.659 445.969 374.637C443.774 375.613 441.515 376.752 439.34 378.227C439.315 378.243 439.292 378.264 439.267 378.281C439.769 377.652 441.115 375.847 441.203 375.696C442.438 373.576 443.578 368.754 441.743 366.709C440.42 365.237 438.184 365.439 436.906 366.843C435.601 368.278 435.531 370.666 435.868 372.467C436.249 374.498 438.825 378.165 439.031 378.457C436.972 379.88 434.975 381.508 433.044 383.267C431.939 384.271 430.858 385.317 429.787 386.38C430.204 385.822 430.572 385.32 430.616 385.245C431.851 383.125 432.991 378.303 431.155 376.259C429.832 374.786 427.596 374.988 426.318 376.393C425.013 377.828 424.942 380.216 425.28 382.017C425.623 383.844 427.756 387.015 428.331 387.846C427.924 388.258 427.514 388.665 427.109 389.078C425.165 391.061 423.234 393.049 421.281 394.94C420.593 395.607 419.89 396.238 419.19 396.873C419.559 396.377 419.867 395.956 419.907 395.887C421.142 393.767 422.282 388.945 420.446 386.901C419.124 385.428 416.887 385.63 415.609 387.035C414.304 388.47 414.234 390.858 414.572 392.659C414.899 394.403 416.842 397.347 417.521 398.339C416.784 398.967 416.047 399.597 415.305 400.172C414.789 400.553 414.319 400.956 413.78 401.311C413.253 401.673 412.732 402.031 412.216 402.386C411.197 403.033 410.149 403.706 409.139 404.313C408.439 404.74 407.765 405.134 407.087 405.532C407.78 404.877 409.109 403.564 409.208 403.442C410.233 402.174 411.39 399.722 411.615 397.543C411.767 397.357 411.903 397.158 412.018 396.946C412.924 395.277 412.378 393.098 410.552 392.335C408.017 391.275 403.839 393.939 402.245 395.803C402.151 395.913 401.263 397.22 400.717 398.054C400.964 397.515 401.209 396.995 401.456 396.436C401.952 395.336 402.415 394.223 402.917 393.028C403.14 392.443 403.364 391.851 403.59 391.254C403.828 390.666 404.004 390.015 404.215 389.391C404.675 387.933 405.071 386.433 405.435 384.914C406.4 385.346 409.846 386.831 411.687 386.834C413.519 386.837 415.855 386.333 417.027 384.788C418.175 383.275 417.966 381.039 416.276 380.008C413.931 378.576 409.398 380.577 407.539 382.178C407.423 382.278 406.218 383.576 405.57 384.303C405.782 383.387 405.998 382.475 406.183 381.543C406.716 378.85 407.172 376.108 407.639 373.374C407.782 372.537 407.934 371.704 408.083 370.87C408.425 371.028 412.484 372.881 414.545 372.885C416.377 372.888 418.713 372.384 419.886 370.838C421.034 369.325 420.825 367.089 419.135 366.058C416.79 364.626 412.257 366.627 410.398 368.227C410.258 368.348 408.527 370.219 408.11 370.716C408.439 368.879 408.784 367.052 409.197 365.264C409.764 362.796 410.456 360.406 411.299 358.141C411.458 358.214 415.686 360.168 417.797 360.172C419.629 360.176 421.965 359.671 423.137 358.126C424.285 356.613 424.076 354.377 422.386 353.346C420.041 351.914 415.508 353.915 413.649 355.516C413.503 355.642 411.642 357.656 411.331 358.045C411.381 357.91 411.419 357.765 411.47 357.631C412.4 355.224 413.603 353.009 414.831 350.99C415.543 349.816 416.288 348.733 417.037 347.696C417.787 348.141 421.238 350.135 423.137 350.348C424.958 350.552 427.335 350.307 428.67 348.9C429.977 347.523 430.015 345.277 428.449 344.066C426.276 342.385 421.55 343.876 419.527 345.263C419.417 345.339 418.383 346.229 417.639 346.888C417.984 346.425 418.332 345.941 418.672 345.504C419.943 343.86 421.208 342.434 422.338 341.179C422.987 340.471 423.587 339.843 424.155 339.262C425.119 339.314 429.005 339.476 430.758 338.803C432.468 338.145 434.464 336.833 435.001 334.969C435.526 333.144 434.525 331.134 432.577 330.781C429.874 330.291 426.366 333.791 425.21 335.955C425.11 336.142 423.883 339.246 423.933 339.249C423.933 339.249 423.98 339.252 423.991 339.252C423.433 339.8 422.841 340.395 422.208 341.057C421.048 342.289 419.748 343.692 418.436 345.315C417.121 346.933 415.738 348.728 414.452 350.75C413.16 352.775 411.904 354.971 410.904 357.401C410.893 357.428 410.884 357.459 410.873 357.486C410.945 356.685 411.071 354.436 411.062 354.262C410.922 351.813 409.213 347.162 406.555 346.469C404.639 345.971 402.885 347.372 402.594 349.25C402.297 351.167 403.556 353.197 404.831 354.513C406.269 355.997 410.441 357.635 410.773 357.764C409.841 360.087 409.073 362.547 408.433 365.079C408.065 366.526 407.74 367.995 407.433 369.472C407.473 368.777 407.503 368.155 407.499 368.068C407.359 365.618 405.65 360.967 402.991 360.275C401.075 359.776 399.322 361.179 399.031 363.055C398.734 364.972 399.993 367.002 401.268 368.319C402.562 369.654 406.09 371.122 407.029 371.498C406.917 372.066 406.799 372.632 406.689 373.2C406.162 375.927 405.648 378.65 405.062 381.305C404.856 382.241 404.619 383.155 404.384 384.071C404.419 383.453 404.443 382.933 404.439 382.853C404.3 380.404 402.59 375.753 399.931 375.06C398.016 374.561 396.262 375.963 395.971 377.84C395.674 379.757 396.933 381.787 398.208 383.103C399.443 384.377 402.687 385.761 403.801 386.213C403.533 387.143 403.266 388.075 402.964 388.965C402.744 389.568 402.575 390.163 402.32 390.756C402.08 391.348 401.843 391.935 401.609 392.516C401.115 393.618 400.613 394.758 400.105 395.821C399.757 396.563 399.412 397.263 399.066 397.97C399.282 397.041 399.667 395.213 399.681 395.056C399.915 392.614 398.93 387.758 396.406 386.67C394.588 385.887 392.642 387.007 392.07 388.818C391.486 390.667 392.423 392.866 393.484 394.36C394.653 396.004 398.366 398.184 398.831 398.454C398.255 399.621 397.684 400.751 397.127 401.809C396.4 403.199 395.7 404.487 395.043 405.666C395.34 406.103 395.711 406.642 396.147 407.258C396.901 405.851 397.719 404.278 398.577 402.548C399.167 401.365 399.773 400.089 400.384 398.773C400.716 398.868 402.609 399.395 404.438 399.666C404.623 401.73 406.39 405.342 406.621 405.806C405.497 406.461 404.397 407.089 403.349 407.664C401.544 408.661 399.875 409.537 398.381 410.297C398.728 410.752 399.092 411.22 399.47 411.698C400.891 410.933 402.457 410.064 404.15 409.081C405.295 408.42 406.505 407.69 407.74 406.929C408.083 407.33 410.909 410.591 412.742 411.441C414.405 412.212 416.736 412.732 418.449 411.82C420.125 410.927 420.872 408.809 419.77 407.165C418.241 404.882 413.286 404.8 410.928 405.475C410.789 405.515 409.327 406.116 408.411 406.51C408.914 406.196 409.406 405.898 409.92 405.569C410.941 404.925 411.94 404.252 413.018 403.532C413.526 403.166 414.04 402.797 414.559 402.423C415.081 402.064 415.587 401.618 416.108 401.214C417.296 400.252 418.453 399.219 419.596 398.153C420.162 399.045 422.218 402.186 423.751 403.204C425.277 404.218 427.504 405.085 429.334 404.443C431.126 403.815 432.185 401.834 431.345 400.042C430.179 397.554 425.294 396.722 422.86 397.032C422.708 397.051 420.987 397.47 420.046 397.718C420.728 397.072 421.412 396.43 422.081 395.754C424.011 393.802 425.904 391.767 427.802 389.744C428.383 389.124 428.969 388.514 429.554 387.9C429.752 388.22 432.115 392.005 433.832 393.146C435.358 394.16 437.585 395.027 439.415 394.385C441.207 393.756 442.266 391.776 441.426 389.984C440.26 387.496 435.375 386.664 432.942 386.974C432.759 386.997 430.283 387.603 429.661 387.788C430.949 386.438 432.245 385.103 433.576 383.84C435.41 382.094 437.306 380.483 439.258 379.058C439.35 379.207 441.798 383.169 443.557 384.337C445.083 385.351 447.31 386.218 449.14 385.576C450.932 384.948 451.991 382.967 451.151 381.175C449.985 378.687 445.1 377.855 442.667 378.165C442.476 378.189 439.812 378.843 439.338 378.996C439.454 378.912 439.566 378.811 439.683 378.728C441.787 377.233 444.012 376.049 446.15 375.043C447.391 374.456 448.61 373.964 449.808 373.512C450.188 374.297 451.966 377.863 453.433 379.089C454.839 380.264 456.957 381.371 458.846 380.934C460.696 380.506 461.966 378.654 461.328 376.78C460.442 374.179 455.678 372.816 453.226 372.856C453.093 372.858 451.739 373.031 450.755 373.17C451.298 372.975 451.856 372.762 452.38 372.585C454.347 371.915 456.189 371.423 457.824 371C458.756 370.767 459.603 370.575 460.397 370.403C461.172 370.979 464.324 373.257 466.157 373.663C467.946 374.058 470.336 374.064 471.811 372.806C473.259 371.576 473.533 369.347 472.103 367.979Z" fill="#263238"/>
<path d="M412.041 342.432C413.077 344.317 416.964 347.175 416.967 347.177C417.007 347.207 418.072 344.044 418.117 343.836C418.629 341.436 418.209 336.499 415.827 335.129C414.111 334.142 412.049 335.032 411.273 336.765C410.48 338.535 411.158 340.826 412.041 342.432Z" fill="#263238"/>
<path d="M89.0773 389.03C89.1163 389.049 89.5412 386.216 89.5482 386.034C89.6212 383.929 88.5252 379.82 86.3062 379.019C84.7082 378.442 83.0993 379.503 82.7033 381.085C82.2993 382.7 83.2153 384.535 84.2023 385.76C85.3603 387.197 89.0743 389.029 89.0773 389.03Z" fill="#263238"/>
<path d="M68.1008 424.567C68.4838 425.304 68.8698 426.042 69.2078 426.774C69.4278 427.279 69.6738 427.75 69.8668 428.269C70.0678 428.779 70.2678 429.284 70.4648 429.784C70.8088 430.761 71.1708 431.768 71.4828 432.729C71.7058 433.396 71.9048 434.036 72.1078 434.68C71.6928 433.974 70.8508 432.609 70.7678 432.503C69.4688 430.846 65.9838 428.407 63.7708 429.223C62.1768 429.811 61.6288 431.659 62.3438 433.124C63.0738 434.62 64.9568 435.434 66.5008 435.736C68.2008 436.068 71.7998 435.228 72.2488 435.12C72.5808 436.187 72.8938 437.228 73.1728 438.215C73.4528 439.197 73.7018 440.117 73.9348 441.003H75.4558C75.1728 440.006 74.8608 438.944 74.5128 437.818C74.1808 436.733 73.8028 435.581 73.4048 434.401C73.6678 434.263 75.1578 433.472 76.4558 432.559C77.7918 433.734 81.0268 434.936 81.4448 435.088C81.1328 436.161 80.8198 437.202 80.5078 438.179C80.1918 439.179 79.8818 440.117 79.5808 441.003H81.1138C81.3528 440.237 81.5968 439.433 81.8448 438.586C82.1658 437.498 82.4868 436.328 82.8058 435.124C83.2568 435.17 86.9438 435.528 88.5868 434.973C90.0768 434.469 91.8348 433.414 92.3618 431.834C92.8768 430.287 92.0888 428.528 90.4308 428.157C88.1298 427.641 84.9978 430.52 83.9298 432.335C83.8668 432.442 83.3128 433.68 82.9758 434.467C83.1038 433.974 83.2328 433.498 83.3578 432.989C83.6118 431.985 83.8358 430.975 84.0808 429.89C84.1808 429.362 84.2818 428.828 84.3838 428.289C84.4958 427.757 84.5478 427.18 84.6328 426.621C84.8028 425.32 84.9128 423.993 84.9928 422.654C85.8728 422.874 89.0088 423.612 90.5648 423.339C92.1138 423.067 94.0118 422.29 94.7708 420.808C95.5138 419.357 95.0018 417.499 93.4188 416.88C91.2218 416.022 87.6908 418.393 86.3598 420.025C86.2768 420.127 85.4538 421.405 85.0148 422.116C85.0568 421.311 85.1028 420.507 85.1188 419.691C85.1658 417.335 85.1398 414.949 85.1238 412.569C85.1188 411.84 85.1228 411.113 85.1228 410.386C85.4348 410.468 89.1438 411.425 90.8868 411.119C92.4358 410.847 94.3338 410.07 95.0938 408.588C95.8368 407.137 95.3248 405.279 93.7418 404.661C91.5448 403.803 88.0138 406.174 86.6828 407.806C86.5828 407.929 85.4008 409.77 85.1228 410.253C85.1258 408.651 85.1428 407.055 85.2238 405.481C85.3328 403.31 85.5598 401.187 85.9308 399.145C86.0768 399.184 89.9428 400.201 91.7278 399.887C93.2768 399.615 95.1748 398.838 95.9338 397.356C96.6768 395.905 96.1648 394.047 94.5818 393.429C92.3848 392.571 88.8538 394.942 87.5228 396.574C87.4178 396.702 86.1478 398.684 85.9428 399.06C85.9658 398.939 85.9748 398.811 85.9988 398.69C86.4238 396.516 87.1078 394.463 87.8428 392.573C88.2678 391.474 88.7358 390.447 89.2128 389.457C89.9138 389.72 93.1288 390.888 94.7668 390.783C96.3368 390.683 98.3088 390.119 99.2258 388.73C100.124 387.37 99.8188 385.466 98.3138 384.678C96.2248 383.584 92.4548 385.553 90.9518 387.029C90.8698 387.109 90.1298 388.017 89.5998 388.686C89.8218 388.243 90.0428 387.782 90.2648 387.361C91.0928 385.781 91.9478 384.386 92.7148 383.156C93.1568 382.46 93.5698 381.84 93.9628 381.263C94.7848 381.163 98.0938 380.717 99.4738 379.884C100.821 379.072 102.311 377.662 102.485 376.007C102.655 374.386 101.507 372.837 99.8078 372.831C97.4498 372.823 95.0108 376.307 94.3578 378.309C94.3018 378.482 93.7298 381.289 93.7728 381.285C93.7728 381.285 93.8128 381.28 93.8228 381.279C93.4338 381.826 93.0228 382.417 92.5868 383.072C91.7908 384.288 90.9028 385.669 90.0378 387.237C89.1688 388.802 88.2698 390.526 87.4868 392.428C86.6988 394.333 85.9668 396.378 85.4858 398.582C85.4798 398.607 85.4778 398.633 85.4728 398.658C85.4138 397.97 85.1828 396.051 85.1488 395.905C84.6638 393.856 82.5208 390.181 80.1698 389.995C78.4758 389.861 77.2038 391.309 77.2398 392.939C77.2768 394.604 78.6448 396.131 79.9198 397.052C81.3578 398.09 85.1288 398.849 85.4298 398.908C84.9908 401.011 84.7108 403.205 84.5498 405.441C84.4568 406.719 84.4018 408.009 84.3638 409.304C84.2928 408.711 84.2258 408.18 84.2078 408.107C83.7218 406.058 81.5798 402.384 79.2288 402.197C77.5348 402.063 76.2628 403.511 76.2988 405.141C76.3348 406.806 77.7038 408.333 78.9788 409.254C80.2728 410.188 83.4748 410.899 84.3248 411.076C84.3158 411.573 84.3008 412.069 84.2928 412.565C84.2568 414.948 84.2308 417.327 84.1338 419.659C84.0998 420.481 84.0368 421.289 83.9758 422.098C83.9118 421.571 83.8548 421.128 83.8388 421.061C83.3538 419.012 81.2108 415.337 78.8598 415.151C77.1658 415.017 75.8938 416.465 75.9298 418.095C75.9668 419.759 77.3348 421.287 78.6108 422.208C79.8458 423.1 82.7958 423.783 83.8048 423.998C83.7178 424.824 83.6318 425.652 83.5108 426.449C83.4158 426.991 83.3608 427.52 83.2348 428.059C83.1218 428.596 83.0088 429.127 82.8978 429.653C82.6458 430.658 82.3928 431.697 82.1228 432.672C81.9398 433.351 81.7538 433.995 81.5678 434.644C81.6108 433.827 81.6618 432.224 81.6508 432.089C81.5378 430.694 80.8088 428.484 79.6598 426.996C79.6448 426.79 79.6108 426.586 79.5578 426.386C79.1338 424.812 77.5058 423.779 75.9188 424.384C73.7148 425.224 72.6908 429.352 72.8018 431.455C72.8088 431.579 73.0298 432.917 73.1828 433.759C73.0178 433.278 72.8628 432.809 72.6858 432.315C72.3438 431.337 71.9738 430.371 71.5798 429.331C71.3718 428.835 71.1618 428.334 70.9488 427.829C70.7488 427.323 70.4738 426.814 70.2358 426.3C69.6598 425.121 69.0188 423.954 68.3468 422.792C69.2018 422.49 72.2248 421.376 73.3718 420.289C74.5138 419.207 75.6678 417.512 75.4838 415.857C75.3028 414.237 73.8508 412.97 72.1898 413.327C69.8838 413.823 68.2468 417.749 68.0368 419.844C68.0238 419.975 68.0418 421.495 68.0688 422.33C67.6598 421.635 67.2548 420.939 66.8178 420.25C65.5568 418.259 64.2188 416.284 62.8928 414.306C62.4868 413.701 62.0888 413.093 61.6878 412.485C61.9938 412.381 65.6158 411.134 66.8998 409.917C68.0418 408.835 69.1968 407.14 69.0128 405.485C68.8328 403.865 67.3798 402.598 65.7188 402.955C63.4128 403.451 61.7758 407.377 61.5658 409.472C61.5498 409.63 61.5798 411.818 61.6148 412.374C60.7338 411.037 59.8668 409.695 59.0668 408.339C57.9598 406.468 56.9778 404.572 56.1618 402.664C56.3038 402.616 60.0898 401.331 61.4058 400.085C62.5478 399.004 63.7018 397.308 63.5178 395.654C63.3378 394.034 61.8848 392.767 60.2238 393.124C57.9178 393.62 56.2808 397.546 56.0708 399.641C56.0538 399.806 56.0878 402.159 56.1238 402.586C56.0748 402.472 56.0128 402.36 55.9658 402.246C55.1208 400.198 54.5588 398.109 54.1288 396.126C53.8768 394.975 53.7008 393.86 53.5528 392.772C54.2818 392.605 57.6088 391.805 58.9168 390.814C60.1708 389.864 61.5048 388.306 61.5028 386.641C61.5018 385.011 60.1968 383.592 58.5068 383.764C56.1608 384.004 54.1028 387.726 53.6638 389.786C53.6398 389.898 53.5238 391.064 53.4508 391.914C53.3918 391.422 53.3218 390.915 53.2748 390.442C53.0938 388.668 53.0368 387.032 52.9978 385.583C52.9828 384.759 52.9848 384.013 52.9948 383.316C53.6258 382.778 56.1388 380.581 56.8308 379.125C57.5058 377.704 57.9718 375.707 57.2028 374.23C56.4508 372.784 54.6388 372.126 53.2178 373.058C51.2458 374.352 51.1338 378.604 51.6938 380.634C51.7428 380.809 52.8138 383.466 52.8478 383.439C52.8478 383.439 52.8788 383.413 52.8858 383.407C52.8628 384.078 52.8468 384.798 52.8438 385.584C52.8508 387.037 52.8718 388.679 53.0158 390.464C53.1548 392.248 53.3558 394.183 53.7518 396.201C54.1458 398.225 54.6628 400.334 55.4778 402.438C55.4868 402.462 55.4998 402.485 55.5088 402.509C55.0798 401.968 53.8288 400.494 53.7198 400.392C52.1848 398.951 48.3708 397.068 46.3068 398.209C44.8198 399.032 44.5578 400.941 45.4868 402.281C46.4358 403.649 48.4198 404.168 49.9918 404.232C51.7638 404.305 55.3278 402.857 55.6118 402.74C56.4058 404.737 57.3828 406.721 58.4818 408.675C59.1088 409.793 59.7758 410.899 60.4578 411.999C60.0718 411.543 59.7228 411.138 59.6678 411.086C58.1318 409.644 54.3178 407.762 52.2548 408.903C50.7678 409.726 50.5068 411.635 51.4348 412.975C52.3838 414.343 54.3678 414.862 55.9398 414.927C57.5348 414.992 60.5978 413.819 61.4038 413.497C61.6698 413.917 61.9308 414.338 62.1988 414.757C63.4838 416.765 64.7738 418.763 65.9798 420.762C66.4048 421.466 66.7978 422.175 67.1938 422.883C66.8498 422.478 66.5578 422.14 66.5078 422.093C64.9728 420.651 61.1588 418.769 59.0948 419.91C57.6078 420.732 57.3458 422.642 58.2748 423.982C59.2238 425.35 61.2078 425.869 62.7798 425.934C64.3048 426.002 67.1408 424.944 68.1008 424.567Z" fill="#263238"/>
<path d="M47.3345 392.455C49.0945 393.015 53.2025 392.494 53.2055 392.494C53.2485 392.489 52.0395 389.891 51.9455 389.736C50.8455 387.94 47.6635 385.117 45.3715 385.673C43.7205 386.073 42.9635 387.846 43.5055 389.384C44.0595 390.954 45.8355 391.978 47.3345 392.455Z" fill="#263238"/>
<path d="M139.233 403.181C139.261 403.195 139.571 401.133 139.575 401.001C139.628 399.47 138.831 396.48 137.217 395.897C136.054 395.477 134.883 396.249 134.595 397.4C134.301 398.575 134.968 399.91 135.686 400.801C136.528 401.848 139.231 403.18 139.233 403.181Z" fill="#263238"/>
<path d="M123.971 429.04C124.25 429.576 124.53 430.113 124.776 430.646C124.936 431.013 125.115 431.356 125.255 431.734C125.401 432.105 125.546 432.473 125.69 432.837C125.941 433.548 126.204 434.28 126.431 434.98C126.593 435.465 126.738 435.931 126.885 436.4C126.583 435.886 125.971 434.893 125.91 434.816C124.965 433.61 122.429 431.836 120.819 432.429C119.659 432.857 119.26 434.201 119.781 435.267C120.312 436.356 121.682 436.948 122.806 437.167C124.042 437.409 126.661 436.798 126.988 436.719C127.23 437.495 127.457 438.253 127.661 438.971C127.865 439.686 128.046 440.355 128.216 440.999H129.322C129.116 440.274 128.889 439.501 128.636 438.681C128.394 437.892 128.12 437.053 127.83 436.195C128.021 436.095 129.105 435.519 130.05 434.855C131.022 435.71 133.376 436.584 133.68 436.695C133.453 437.475 133.225 438.233 132.998 438.944C132.768 439.671 132.543 440.354 132.324 440.999H133.439C133.613 440.442 133.791 439.857 133.971 439.241C134.205 438.449 134.438 437.598 134.67 436.722C134.998 436.756 137.68 437.016 138.876 436.612C139.96 436.245 141.239 435.477 141.622 434.328C141.997 433.203 141.423 431.923 140.217 431.652C138.543 431.277 136.264 433.371 135.487 434.692C135.441 434.77 135.038 435.671 134.793 436.243C134.886 435.885 134.98 435.538 135.071 435.167C135.256 434.436 135.419 433.702 135.597 432.912C135.67 432.528 135.743 432.139 135.817 431.747C135.899 431.36 135.936 430.94 135.998 430.533C136.122 429.586 136.201 428.621 136.26 427.647C136.9 427.807 139.182 428.344 140.314 428.145C141.441 427.947 142.822 427.382 143.375 426.304C143.916 425.248 143.543 423.896 142.392 423.446C140.794 422.821 138.224 424.547 137.256 425.734C137.196 425.808 136.597 426.738 136.277 427.256C136.308 426.67 136.341 426.085 136.353 425.491C136.387 423.777 136.368 422.041 136.357 420.309C136.353 419.778 136.356 419.25 136.356 418.72C136.583 418.78 139.282 419.476 140.55 419.254C141.677 419.056 143.058 418.491 143.611 417.413C144.152 416.357 143.779 415.005 142.627 414.555C141.029 413.931 138.459 415.656 137.491 416.843C137.418 416.933 136.558 418.272 136.356 418.624C136.358 417.458 136.371 416.297 136.43 415.152C136.509 413.573 136.674 412.027 136.945 410.542C137.051 410.57 139.864 411.31 141.163 411.082C142.29 410.884 143.671 410.319 144.224 409.241C144.765 408.185 144.392 406.833 143.241 406.383C141.643 405.758 139.074 407.484 138.105 408.671C138.029 408.764 137.104 410.206 136.955 410.48C136.971 410.392 136.979 410.299 136.996 410.211C137.305 408.629 137.803 407.136 138.338 405.76C138.647 404.96 138.987 404.213 139.335 403.493C139.845 403.684 142.184 404.534 143.376 404.458C144.518 404.385 145.953 403.975 146.62 402.964C147.274 401.974 147.051 400.589 145.956 400.016C144.436 399.22 141.693 400.652 140.6 401.726C140.541 401.784 140.002 402.445 139.617 402.932C139.779 402.61 139.94 402.274 140.101 401.968C140.703 400.819 141.325 399.803 141.884 398.908C142.206 398.402 142.506 397.95 142.792 397.531C143.39 397.458 145.798 397.133 146.802 396.528C147.782 395.937 148.866 394.912 148.993 393.707C149.117 392.527 148.282 391.401 147.045 391.396C145.329 391.39 143.555 393.925 143.08 395.382C143.039 395.508 142.623 397.551 142.654 397.547C142.654 397.547 142.683 397.543 142.69 397.543C142.407 397.941 142.108 398.371 141.791 398.848C141.212 399.732 140.566 400.737 139.937 401.878C139.305 403.016 138.651 404.271 138.08 405.655C137.507 407.041 136.974 408.529 136.624 410.132C136.62 410.15 136.618 410.17 136.614 410.188C136.571 409.687 136.403 408.291 136.378 408.185C136.025 406.694 134.466 404.021 132.755 403.885C131.523 403.788 130.597 404.841 130.623 406.027C130.65 407.238 131.645 408.349 132.573 409.019C133.619 409.774 136.363 410.326 136.582 410.369C136.262 411.899 136.059 413.495 135.942 415.122C135.874 416.052 135.835 416.991 135.807 417.933C135.756 417.501 135.707 417.115 135.694 417.062C135.341 415.571 133.782 412.898 132.071 412.762C130.838 412.664 129.913 413.718 129.939 414.904C129.965 416.115 130.961 417.226 131.889 417.896C132.83 418.576 135.16 419.093 135.779 419.222C135.772 419.583 135.761 419.944 135.756 420.306C135.729 422.04 135.711 423.771 135.64 425.468C135.615 426.066 135.569 426.654 135.525 427.243C135.479 426.86 135.437 426.537 135.425 426.488C135.072 424.997 133.513 422.324 131.802 422.188C130.57 422.09 129.644 423.144 129.67 424.33C129.697 425.541 130.693 426.652 131.62 427.322C132.518 427.971 134.665 428.468 135.399 428.624C135.336 429.225 135.273 429.828 135.185 430.407C135.116 430.802 135.076 431.186 134.984 431.579C134.902 431.969 134.82 432.356 134.739 432.739C134.556 433.47 134.371 434.226 134.175 434.935C134.042 435.429 133.906 435.898 133.771 436.37C133.802 435.775 133.839 434.609 133.831 434.511C133.749 433.496 133.218 431.888 132.382 430.805C132.371 430.655 132.347 430.507 132.307 430.361C131.999 429.216 130.814 428.464 129.659 428.905C128.055 429.516 127.311 432.52 127.391 434.05C127.396 434.14 127.556 435.114 127.668 435.727C127.548 435.377 127.435 435.036 127.306 434.677C127.057 433.966 126.788 433.263 126.501 432.506C126.35 432.145 126.197 431.781 126.042 431.413C125.897 431.045 125.696 430.674 125.523 430.301C125.104 429.443 124.638 428.594 124.149 427.749C124.772 427.529 126.971 426.719 127.805 425.928C128.636 425.141 129.476 423.908 129.342 422.704C129.211 421.525 128.154 420.603 126.945 420.863C125.268 421.224 124.076 424.08 123.924 425.605C123.914 425.7 123.928 426.806 123.947 427.414C123.649 426.908 123.355 426.402 123.037 425.901C122.12 424.453 121.146 423.015 120.181 421.577C119.885 421.137 119.596 420.694 119.304 420.252C119.527 420.176 122.162 419.269 123.096 418.384C123.927 417.597 124.767 416.364 124.633 415.16C124.502 413.981 123.445 413.059 122.237 413.319C120.559 413.68 119.368 416.536 119.215 418.061C119.203 418.176 119.225 419.768 119.25 420.172C118.609 419.199 117.979 418.223 117.396 417.236C116.591 415.875 115.876 414.495 115.282 413.107C115.385 413.072 118.14 412.137 119.097 411.23C119.928 410.443 120.768 409.21 120.634 408.006C120.503 406.827 119.446 405.905 118.238 406.165C116.56 406.526 115.369 409.382 115.217 410.907C115.205 411.027 115.229 412.739 115.256 413.05C115.221 412.967 115.175 412.886 115.141 412.803C114.526 411.313 114.118 409.793 113.805 408.35C113.622 407.512 113.493 406.701 113.386 405.909C113.917 405.788 116.337 405.205 117.289 404.485C118.201 403.794 119.172 402.66 119.171 401.449C119.17 400.263 118.221 399.23 116.991 399.356C115.284 399.53 113.786 402.239 113.467 403.737C113.45 403.819 113.365 404.667 113.312 405.285C113.269 404.927 113.218 404.558 113.184 404.214C113.052 402.923 113.011 401.733 112.983 400.679C112.972 400.079 112.974 399.537 112.981 399.029C113.44 398.638 115.269 397.039 115.772 395.98C116.263 394.946 116.602 393.493 116.043 392.418C115.495 391.366 114.177 390.887 113.144 391.565C111.709 392.506 111.628 395.6 112.035 397.077C112.07 397.205 112.85 399.138 112.874 399.118C112.874 399.118 112.896 399.099 112.902 399.094C112.885 399.582 112.873 400.106 112.872 400.678C112.877 401.735 112.892 402.929 112.997 404.228C113.098 405.526 113.244 406.934 113.532 408.402C113.819 409.875 114.195 411.409 114.788 412.94C114.795 412.957 114.804 412.974 114.811 412.992C114.499 412.598 113.588 411.526 113.509 411.452C112.392 410.403 109.617 409.033 108.115 409.864C107.033 410.463 106.843 411.852 107.519 412.827C108.209 413.822 109.653 414.2 110.796 414.247C112.086 414.3 114.679 413.246 114.885 413.162C115.463 414.615 116.173 416.059 116.973 417.48C117.429 418.293 117.914 419.098 118.411 419.899C118.13 419.567 117.876 419.273 117.836 419.235C116.719 418.186 113.944 416.817 112.442 417.647C111.36 418.246 111.17 419.635 111.846 420.61C112.536 421.606 113.98 421.983 115.124 422.03C116.284 422.077 118.513 421.224 119.1 420.99C119.294 421.295 119.484 421.602 119.679 421.907C120.614 423.368 121.553 424.822 122.43 426.276C122.74 426.789 123.025 427.304 123.313 427.82C123.063 427.525 122.85 427.279 122.814 427.245C121.697 426.196 118.922 424.826 117.42 425.657C116.338 426.255 116.148 427.645 116.824 428.62C117.514 429.615 118.958 429.993 120.101 430.04C121.209 430.084 123.273 429.315 123.971 429.04Z" fill="#263238"/>
<path d="M108.862 405.674C110.142 406.082 113.131 405.703 113.133 405.702C113.164 405.698 112.285 403.808 112.216 403.695C111.415 402.388 109.101 400.335 107.433 400.739C106.232 401.03 105.681 402.32 106.076 403.439C106.479 404.581 107.772 405.326 108.862 405.674Z" fill="#263238"/>
<g opacity="0.2">
<path d="M387.304 109.328C377.931 109.328 370.305 116.954 370.305 126.327C370.305 135.7 377.931 143.326 387.304 143.326C396.677 143.326 404.303 135.7 404.303 126.327C404.304 116.954 396.678 109.328 387.304 109.328ZM389.032 136.719V138.353H386.148V136.719C383.617 136.206 382.335 134.252 382.335 131.208V129.67H385.668V131.432C385.668 133.034 386.373 133.611 387.494 133.611C388.615 133.611 389.32 133.034 389.32 131.432C389.32 126.818 382.431 126.594 382.431 120.185C382.431 117.173 383.681 115.25 386.148 114.706V113.04H389.032V114.706C391.531 115.219 392.813 117.141 392.813 120.185V120.89H389.481V119.961C389.481 118.359 388.84 117.75 387.718 117.75C386.597 117.75 385.956 118.359 385.956 119.961C385.956 124.575 392.845 124.8 392.845 131.208C392.845 134.252 391.532 136.206 389.032 136.719Z" stroke="black" stroke-miterlimit="10"/>
<path d="M387.303 102.5C374.145 102.5 363.477 113.167 363.477 126.326C363.477 139.485 374.144 150.152 387.303 150.152C400.462 150.152 411.129 139.485 411.129 126.326C411.129 113.167 400.462 102.5 387.303 102.5ZM387.303 145.896C376.511 145.896 367.732 137.117 367.732 126.325C367.732 115.533 376.511 106.754 387.303 106.754C398.095 106.754 406.874 115.533 406.874 126.325C406.874 137.117 398.095 145.896 387.303 145.896Z" stroke="black" stroke-miterlimit="10"/>
</g>
<g opacity="0.2">
<path d="M436.107 237.68C428.885 237.68 423.008 243.556 423.008 250.779C423.008 258.001 428.884 263.878 436.107 263.878C443.329 263.878 449.206 258.002 449.206 250.779C449.205 243.556 443.329 237.68 436.107 237.68ZM437.438 258.785V260.044H435.216V258.785C433.266 258.39 432.278 256.884 432.278 254.538V253.353H434.846V254.711C434.846 255.946 435.389 256.39 436.253 256.39C437.117 256.39 437.66 255.946 437.66 254.711C437.66 251.156 432.351 250.983 432.351 246.045C432.351 243.724 433.314 242.243 435.215 241.823V240.539H437.437V241.823C439.363 242.218 440.35 243.699 440.35 246.045V246.588H437.782V245.872C437.782 244.638 437.288 244.169 436.424 244.169C435.56 244.169 435.066 244.638 435.066 245.872C435.066 249.427 440.374 249.6 440.374 254.539C440.376 256.884 439.364 258.39 437.438 258.785Z" stroke="black" stroke-miterlimit="10"/>
<path d="M436.105 232.422C425.966 232.422 417.746 240.641 417.746 250.781C417.746 260.921 425.965 269.14 436.105 269.14C446.244 269.14 454.464 260.921 454.464 250.781C454.464 240.641 446.244 232.422 436.105 232.422ZM436.105 265.86C427.79 265.86 421.025 259.095 421.025 250.78C421.025 242.465 427.79 235.7 436.105 235.7C444.42 235.7 451.185 242.465 451.185 250.78C451.185 259.096 444.42 265.86 436.105 265.86Z" stroke="black" stroke-miterlimit="10"/>
</g>
<g opacity="0.2">
<path d="M367.702 48.6562C358.329 48.6562 350.703 56.2822 350.703 65.6552C350.703 75.0282 358.329 82.6542 367.702 82.6542C377.075 82.6542 384.701 75.0282 384.701 65.6552C384.701 56.2822 377.075 48.6562 367.702 48.6562ZM369.429 76.0472V77.6812H366.545V76.0472C364.014 75.5342 362.732 73.5803 362.732 70.5363V68.9982H366.065V70.7603C366.065 72.3633 366.77 72.9393 367.891 72.9393C369.013 72.9393 369.717 72.3633 369.717 70.7603C369.717 66.1463 362.828 65.9222 362.828 59.5132C362.828 56.5012 364.078 54.5782 366.545 54.0342V52.3682H369.429V54.0342C371.929 54.5472 373.21 56.4692 373.21 59.5132V60.2183H369.878V59.2892C369.878 57.6872 369.237 57.0782 368.115 57.0782C366.994 57.0782 366.353 57.6872 366.353 59.2892C366.353 63.9032 373.242 64.1283 373.242 70.5363C373.243 73.5793 371.929 75.5342 369.429 76.0472Z" stroke="black" stroke-miterlimit="10"/>
<path d="M367.701 41.8281C354.543 41.8281 343.875 52.4951 343.875 65.6541C343.875 78.8131 354.542 89.4801 367.701 89.4801C380.86 89.4801 391.527 78.8131 391.527 65.6541C391.527 52.4961 380.859 41.8281 367.701 41.8281ZM367.701 85.2251C356.91 85.2251 348.13 76.4461 348.13 65.6541C348.13 54.8631 356.909 46.0831 367.701 46.0831C378.493 46.0831 387.272 54.8621 387.272 65.6541C387.272 76.4461 378.492 85.2251 367.701 85.2251Z" stroke="black" stroke-miterlimit="10"/>
</g>
<g opacity="0.2">
<path d="M421.991 64.8281C412.618 64.8281 404.992 72.4541 404.992 81.8271C404.992 91.2001 412.618 98.8261 421.991 98.8261C431.364 98.8261 438.99 91.2001 438.99 81.8271C438.99 72.4541 431.364 64.8281 421.991 64.8281ZM423.718 92.2181V93.8521H420.834V92.2181C418.303 91.7051 417.021 89.7511 417.021 86.7071V85.1691H420.354V86.9311C420.354 88.5341 421.059 89.1101 422.18 89.1101C423.301 89.1101 424.006 88.5341 424.006 86.9311C424.006 82.3171 417.117 82.0931 417.117 75.6841C417.117 72.6721 418.367 70.7491 420.834 70.2051V68.5391H423.718V70.2051C426.218 70.7181 427.499 72.6401 427.499 75.6841V76.3891H424.167V75.4601C424.167 73.8581 423.526 73.2491 422.404 73.2491C421.283 73.2491 420.642 73.8581 420.642 75.4601C420.642 80.0741 427.531 80.2991 427.531 86.7071C427.531 89.7511 426.218 91.7061 423.718 92.2181Z" stroke="black" stroke-miterlimit="10"/>
<path d="M421.99 58C408.832 58 398.164 68.667 398.164 81.826C398.164 94.985 408.831 105.652 421.99 105.652C435.149 105.652 445.816 94.985 445.816 81.826C445.816 68.667 435.149 58 421.99 58ZM421.991 101.397C411.2 101.397 402.42 92.618 402.42 81.826C402.42 71.035 411.199 62.255 421.991 62.255C432.783 62.255 441.562 71.034 441.562 81.826C441.561 92.617 432.782 101.397 421.991 101.397Z" stroke="black" stroke-miterlimit="10"/>
</g>
<g opacity="0.3">
<path d="M293.285 341.599V327.449C293.285 325.126 295.168 323.242 297.492 323.242H335.481C337.804 323.242 339.688 325.125 339.688 327.449V376.598C339.688 378.921 337.805 380.805 335.481 380.805H329.558" stroke="black" stroke-miterlimit="10"/>
<path d="M293.285 350.226V345.195" stroke="black" stroke-miterlimit="10"/>
<path d="M324.706 380.806H297.492C295.169 380.806 293.285 378.923 293.285 376.599V354.719" stroke="black" stroke-miterlimit="10"/>
<path d="M323.806 330.422H335.01V338.022H297.961V330.422H320.212" stroke="black" stroke-miterlimit="10"/>
<path d="M305.087 346.578H299.387V352.278H305.087V346.578Z" stroke="black" stroke-miterlimit="10"/>
<path d="M314.587 346.578H308.887V352.278H314.587V346.578Z" stroke="black" stroke-miterlimit="10"/>
<path d="M324.087 346.578H318.387V352.278H324.087V346.578Z" stroke="black" stroke-miterlimit="10"/>
<path d="M333.587 346.578H327.887V352.278H333.587V346.578Z" stroke="black" stroke-miterlimit="10"/>
<path d="M305.087 355.438H299.387V361.138H305.087V355.438Z" stroke="black" stroke-miterlimit="10"/>
<path d="M314.587 355.438H308.887V361.138H314.587V355.438Z" stroke="black" stroke-miterlimit="10"/>
<path d="M324.087 355.438H318.387V361.138H324.087V355.438Z" stroke="black" stroke-miterlimit="10"/>
<path d="M305.087 364.305H299.387V370.005H305.087V364.305Z" stroke="black" stroke-miterlimit="10"/>
<path d="M314.587 364.305H308.887V370.005H314.587V364.305Z" stroke="black" stroke-miterlimit="10"/>
<path d="M324.087 364.305H318.387V370.005H324.087V364.305Z" stroke="black" stroke-miterlimit="10"/>
<path d="M333.587 355.438H327.887V370.004H333.587V355.438Z" stroke="black" stroke-miterlimit="10"/>
</g>
<g opacity="0.3">
<path d="M56.9805 73.9976V60.6406H88.5855L99.8985 70.9716V114.131" stroke="black" stroke-miterlimit="10"/>
<path d="M56.9805 107.917V77.8047" stroke="black" stroke-miterlimit="10"/>
<path d="M88.5859 60.6406V71.2766H99.8989L88.5859 60.6406Z" stroke="black" stroke-miterlimit="10"/>
<path d="M97.8966 115.723L99.8996 115.6C96.3496 116.428 93.4716 112.499 93.4716 108.949V107.914H53.4766V110.907C53.4766 113.454 55.5606 115.505 58.1066 115.458C69.8556 115.242 97.8966 115.924 97.8966 115.723Z" stroke="black" stroke-miterlimit="10"/>
<path d="M62.6367 76.4688H94.9987" stroke="black" stroke-miterlimit="10"/>
<path d="M73.7837 104.25H62.6367V80.7422H94.7047V104.25H77.3257" stroke="black" stroke-miterlimit="10"/>
<path d="M62.9414 85.625H94.3884" stroke="black" stroke-miterlimit="10"/>
<path d="M89.5039 85.9297V103.943" stroke="black" stroke-miterlimit="10"/>
</g>
<g opacity="0.3">
<path d="M110.047 65.0044V51.6484H141.652L152.965 61.9784V105.138" stroke="black" stroke-miterlimit="10"/>
<path d="M110.047 98.9167V68.8047" stroke="black" stroke-miterlimit="10"/>
<path d="M141.652 51.6484V62.2844H152.965L141.652 51.6484Z" stroke="black" stroke-miterlimit="10"/>
<path d="M150.963 106.732L152.966 106.609C149.416 107.437 146.538 103.508 146.538 99.9579V98.9219H106.543V101.915C106.543 104.462 108.627 106.513 111.174 106.466C122.922 106.251 150.963 106.933 150.963 106.732Z" stroke="black" stroke-miterlimit="10"/>
<path d="M115.703 67.4766H148.065" stroke="black" stroke-miterlimit="10"/>
<path d="M126.85 95.259H115.703V71.75H147.771V95.259H130.391" stroke="black" stroke-miterlimit="10"/>
<path d="M116.008 76.6328H147.454" stroke="black" stroke-miterlimit="10"/>
<path d="M142.566 76.9375V94.9505" stroke="black" stroke-miterlimit="10"/>
</g>
<g opacity="0.3">
<path d="M97.1352 240.37L103.065 245.4L67.8962 286.859L45.9102 268.209L81.0792 226.75L94.8532 238.434" stroke="black" stroke-miterlimit="10"/>
<path d="M89.9064 255.648L74.4844 273.824" stroke="black" stroke-miterlimit="10"/>
<path d="M71.082 243.801L78.604 234.936C80.051 236.163 82.222 235.986 83.449 234.539L94.287 243.735C93.051 245.182 93.237 247.353 94.684 248.58C94.931 248.792 95.205 248.942 95.487 249.074L91.748 253.48" stroke="black" stroke-miterlimit="10"/>
<path d="M60.8817 275.121H60.8727L54.1477 269.411C54.2537 269.314 54.3687 269.226 54.4657 269.102C55.7017 267.655 55.5157 265.484 54.0687 264.257C53.9977 264.204 53.9277 264.16 53.8477 264.107L68.4497 246.898" stroke="black" stroke-miterlimit="10"/>
<path d="M78.1488 252.485C75.7638 250.462 72.1908 250.755 70.1688 253.14C68.1458 255.525 68.4388 259.098 70.8238 261.12C73.2088 263.143 76.7818 262.85 78.8038 260.465C80.8268 258.081 80.5338 254.508 78.1488 252.485Z" stroke="black" stroke-miterlimit="10"/>
<path d="M67.8086 224.403L72.7036 224.312L72.7236 225.55" stroke="black" stroke-miterlimit="10"/>
<path d="M44.205 245.507L43.875 224.772L62.376 224.477" stroke="black" stroke-miterlimit="10"/>
<path d="M58.6023 278.909L44.7383 279.129L44.2773 250.141" stroke="black" stroke-miterlimit="10"/>
<path d="M60.7183 228.914L50.7892 229.072C50.8192 230.971 49.3043 232.535 47.4062 232.565L47.8923 263.121" stroke="black" stroke-miterlimit="10"/>
<path d="M86.582 231.422L89.979 232.701L89.52 233.919" stroke="black" stroke-miterlimit="10"/>
<path d="M70.7227 283.533L70.8107 283.568L70.9077 283.312" stroke="black" stroke-miterlimit="10"/>
<path d="M57.9023 236.064L63.0013 222.531L79.4073 228.718" stroke="black" stroke-miterlimit="10"/>
<path d="M58.606 278.972H58.597L43.832 273.411L56.555 239.641" stroke="black" stroke-miterlimit="10"/>
<path d="M76.3792 232.282L67.8542 229.07C67.1832 230.844 65.1982 231.744 63.4242 231.073L52.2422 260.736V260.745" stroke="black" stroke-miterlimit="10"/>
</g>
<g opacity="0.3">
<path d="M164.072 357.531H118.113V404.957H164.072V357.531Z" stroke="black" stroke-miterlimit="10" stroke-linecap="round" stroke-linejoin="round"/>
<path d="M160.159 364.867H122.023V370.734H160.159V364.867Z" stroke="black" stroke-miterlimit="10" stroke-linecap="round" stroke-linejoin="round"/>
<path d="M128.682 379.516H122.023V386.176H128.682V379.516Z" stroke="black" stroke-miterlimit="10" stroke-linecap="round" stroke-linejoin="round"/>
<path d="M139.339 379.516H132.68V386.176H139.339V379.516Z" stroke="black" stroke-miterlimit="10" stroke-linecap="round" stroke-linejoin="round"/>
<path d="M149.991 379.516H143.332V386.176H149.991V379.516Z" stroke="black" stroke-miterlimit="10" stroke-linecap="round" stroke-linejoin="round"/>
<path d="M160.647 379.516H153.988V386.176H160.647V379.516Z" stroke="black" stroke-miterlimit="10" stroke-linecap="round" stroke-linejoin="round"/>
<path d="M128.682 391.25H122.023V397.91H128.682V391.25Z" stroke="black" stroke-miterlimit="10" stroke-linecap="round" stroke-linejoin="round"/>
<path d="M139.339 391.25H132.68V397.91H139.339V391.25Z" stroke="black" stroke-miterlimit="10" stroke-linecap="round" stroke-linejoin="round"/>
<path d="M149.991 391.25H143.332V397.91H149.991V391.25Z" stroke="black" stroke-miterlimit="10" stroke-linecap="round" stroke-linejoin="round"/>
<path d="M160.647 391.25H153.988V397.91H160.647V391.25Z" stroke="black" stroke-miterlimit="10" stroke-linecap="round" stroke-linejoin="round"/>
<path d="M124.449 357.537V350.047H128.556V357.295" stroke="black" stroke-miterlimit="10" stroke-linecap="round" stroke-linejoin="round"/>
<path d="M154.895 357.537V350.047H159.002V357.295" stroke="black" stroke-miterlimit="10" stroke-linecap="round" stroke-linejoin="round"/>
<path d="M138.703 357.537V350.047H142.811V357.295" stroke="black" stroke-miterlimit="10" stroke-linecap="round" stroke-linejoin="round"/>
</g>
<path d="M423.531 289.607L378.902 314.027C377.176 314.972 375.01 314.338 374.066 312.612L358.606 284.358C357.661 282.632 358.295 280.466 360.021 279.522L404.65 255.102C406.376 254.157 408.542 254.791 409.486 256.517L424.946 284.771C425.891 286.497 425.257 288.662 423.531 289.607Z" fill="#C82121" stroke="#263238" stroke-miterlimit="10" stroke-linecap="round" stroke-linejoin="round"/>
<path d="M413.547 263.941L362.664 291.781L366.504 298.8L417.387 270.96L413.547 263.941Z" fill="#263238" stroke="#263238" stroke-miterlimit="10" stroke-linecap="round" stroke-linejoin="round"/>
<path d="M398.416 263.066C397.933 262.182 396.824 261.858 395.941 262.342C395.057 262.825 394.733 263.934 395.217 264.817C395.7 265.7 396.809 266.025 397.692 265.541C398.575 265.058 398.9 263.95 398.416 263.066Z" fill="white" stroke="#263238" stroke-miterlimit="10" stroke-linecap="round" stroke-linejoin="round"/>
<path d="M404.283 259.855C403.8 258.971 402.691 258.647 401.808 259.131C400.924 259.614 400.6 260.723 401.084 261.606C401.567 262.49 402.676 262.814 403.559 262.33C404.442 261.847 404.767 260.739 404.283 259.855Z" fill="white" stroke="#263238" stroke-miterlimit="10" stroke-linecap="round" stroke-linejoin="round"/>
<path d="M375.523 306.083L385.656 300.539" stroke="#263238" stroke-miterlimit="10" stroke-linecap="round" stroke-linejoin="round"/>
<path d="M376.547 307.95L386.679 302.406" stroke="#263238" stroke-miterlimit="10" stroke-linecap="round" stroke-linejoin="round"/>
<path d="M429.38 311.079L379.291 319.98C377.353 320.324 375.504 319.033 375.159 317.095L369.524 285.385C369.18 283.447 370.471 281.597 372.409 281.253L422.498 272.352C424.436 272.008 426.285 273.299 426.63 275.237L432.265 306.947C432.61 308.885 431.318 310.735 429.38 311.079Z" fill="white" stroke="#263238" stroke-miterlimit="10" stroke-linecap="round" stroke-linejoin="round"/>
<path d="M428.13 283.53L371.023 293.68L372.423 301.556L429.53 291.406L428.13 283.53Z" fill="#263238" stroke="#263238" stroke-miterlimit="10" stroke-linecap="round" stroke-linejoin="round"/>
<path d="M414.05 277.912C413.874 276.92 412.927 276.259 411.935 276.435C410.943 276.611 410.282 277.558 410.458 278.55C410.634 279.542 411.581 280.203 412.573 280.027C413.565 279.85 414.226 278.904 414.05 277.912Z" fill="white" stroke="#263238" stroke-miterlimit="10" stroke-linecap="round" stroke-linejoin="round"/>
<path d="M420.632 276.74C420.456 275.748 419.509 275.087 418.517 275.263C417.525 275.439 416.864 276.386 417.04 277.378C417.216 278.37 418.163 279.031 419.155 278.855C420.147 278.679 420.808 277.732 420.632 276.74Z" fill="white" stroke="#263238" stroke-miterlimit="10" stroke-linecap="round" stroke-linejoin="round"/>
<path d="M378.629 311.373L390.001 309.352" stroke="#263238" stroke-miterlimit="10" stroke-linecap="round" stroke-linejoin="round"/>
<path d="M379 313.466L390.372 311.445" stroke="#263238" stroke-miterlimit="10" stroke-linecap="round" stroke-linejoin="round"/>
<path d="M343.406 210.438H399.605V177.342H343.406V210.438Z" fill="white" stroke="#263238" stroke-miterlimit="10" stroke-linecap="round" stroke-linejoin="round"/>
<path d="M381.932 210.438H425.613V177.342H381.932V210.438Z" fill="white" stroke="#263238" stroke-miterlimit="10" stroke-linecap="round" stroke-linejoin="round"/>
<path d="M424.572 210.438H455.336V177.342H424.572V210.438Z" fill="white" stroke="#263238" stroke-miterlimit="10" stroke-linecap="round" stroke-linejoin="round"/>
<path d="M333.6 210.438H373.996V177.342H333.6V210.438Z" fill="white" stroke="#263238" stroke-miterlimit="10" stroke-linecap="round" stroke-linejoin="round"/>
<path d="M351.553 210.438H365.848V183.771H351.553V210.438Z" fill="#C82121" stroke="#263238" stroke-miterlimit="10" stroke-linecap="round" stroke-linejoin="round"/>
<path d="M373.997 177.344L351.563 167.688L333.227 177.344H373.997Z" fill="white" stroke="#263238" stroke-miterlimit="10" stroke-linecap="round" stroke-linejoin="round"/>
<path d="M351.562 167.688H402.798L381.934 177.344H373.997L351.562 167.688Z" fill="#263238" stroke="#263238" stroke-miterlimit="10" stroke-linecap="round" stroke-linejoin="round"/>
<path d="M402.798 167.688H442.072V177.344H381.934L402.798 167.688Z" fill="#263238" stroke="#263238" stroke-miterlimit="10" stroke-linecap="round" stroke-linejoin="round"/>
<path d="M442.072 167.688L455.338 177.344H442.072H433.843H424.574L442.072 167.688Z" fill="white" stroke="#263238" stroke-miterlimit="10" stroke-linecap="round" stroke-linejoin="round"/>
<path d="M416.463 182.273H420.004V180.029H416.463V182.273Z" fill="white" stroke="#263238" stroke-miterlimit="10" stroke-linecap="round" stroke-linejoin="round"/>
<path d="M411.506 182.273H415.047V180.029H411.506V182.273Z" fill="white" stroke="#263238" stroke-miterlimit="10" stroke-linecap="round" stroke-linejoin="round"/>
<path d="M406.545 182.273H410.086V180.029H406.545V182.273Z" fill="white" stroke="#263238" stroke-miterlimit="10" stroke-linecap="round" stroke-linejoin="round"/>
<path d="M401.588 182.273H405.129V180.029H401.588V182.273Z" fill="white" stroke="#263238" stroke-miterlimit="10" stroke-linecap="round" stroke-linejoin="round"/>
<path d="M396.631 182.273H400.172V180.029H396.631V182.273Z" fill="white" stroke="#263238" stroke-miterlimit="10" stroke-linecap="round" stroke-linejoin="round"/>
<path d="M391.674 182.273H395.215V180.029H391.674V182.273Z" fill="white" stroke="#263238" stroke-miterlimit="10" stroke-linecap="round" stroke-linejoin="round"/>
<path d="M386.717 182.273H390.258V180.029H386.717V182.273Z" fill="white" stroke="#263238" stroke-miterlimit="10" stroke-linecap="round" stroke-linejoin="round"/>
<path d="M386.715 210.438H420.004V184.893H386.715V210.438Z" fill="#C82121" stroke="#263238" stroke-miterlimit="10" stroke-linecap="round" stroke-linejoin="round"/>
<path d="M410.545 192.992H417.758V187.506H410.545V192.992Z" stroke="#263238" stroke-miterlimit="10" stroke-linecap="round" stroke-linejoin="round"/>
<path d="M399.939 192.992H407.152V187.506H399.939V192.992Z" stroke="#263238" stroke-miterlimit="10" stroke-linecap="round" stroke-linejoin="round"/>
<path d="M389.334 192.992H396.547V187.506H389.334V192.992Z" stroke="#263238" stroke-miterlimit="10" stroke-linecap="round" stroke-linejoin="round"/>
<path d="M410.545 200.539H417.758V195.053H410.545V200.539Z" stroke="#263238" stroke-miterlimit="10" stroke-linecap="round" stroke-linejoin="round"/>
<path d="M399.939 200.539H407.152V195.053H399.939V200.539Z" stroke="#263238" stroke-miterlimit="10" stroke-linecap="round" stroke-linejoin="round"/>
<path d="M389.334 200.539H396.547V195.053H389.334V200.539Z" stroke="#263238" stroke-miterlimit="10" stroke-linecap="round" stroke-linejoin="round"/>
<path d="M410.545 208.078H417.758V202.592H410.545V208.078Z" stroke="#263238" stroke-miterlimit="10" stroke-linecap="round" stroke-linejoin="round"/>
<path d="M399.939 208.078H407.152V202.592H399.939V208.078Z" stroke="#263238" stroke-miterlimit="10" stroke-linecap="round" stroke-linejoin="round"/>
<path d="M389.334 208.078H396.547V202.592H389.334V208.078Z" stroke="#263238" stroke-miterlimit="10" stroke-linecap="round" stroke-linejoin="round"/>
<path d="M359.344 197.102H363.898V186.013H359.344V197.102Z" stroke="#263238" stroke-miterlimit="10" stroke-linecap="round" stroke-linejoin="round"/>
<path d="M353.423 197.102H357.977V186.013H353.423V197.102Z" stroke="#263238" stroke-miterlimit="10" stroke-linecap="round" stroke-linejoin="round"/>
<path d="M359.344 208.461H363.898V199.924H359.344V208.461Z" stroke="#263238" stroke-miterlimit="10" stroke-linecap="round" stroke-linejoin="round"/>
<path d="M353.423 208.461H357.977V199.924H353.423V208.461Z" stroke="#263238" stroke-miterlimit="10" stroke-linecap="round" stroke-linejoin="round"/>
<path d="M336.221 200.602H349.02V183.77H336.221V200.602Z" fill="white" stroke="#263238" stroke-miterlimit="10" stroke-linecap="round" stroke-linejoin="round"/>
<path d="M342.203 184.148V200.606" stroke="#263238" stroke-miterlimit="10" stroke-linecap="round" stroke-linejoin="round"/>
<path d="M348.56 192.008H336.965" stroke="#263238" stroke-miterlimit="10" stroke-linecap="round" stroke-linejoin="round"/>
<path d="M433.471 200.602H446.27V183.77H433.471V200.602Z" fill="white" stroke="#263238" stroke-miterlimit="10" stroke-linecap="round" stroke-linejoin="round"/>
<path d="M439.453 184.148V200.606" stroke="#263238" stroke-miterlimit="10" stroke-linecap="round" stroke-linejoin="round"/>
<path d="M445.81 192.008H434.215" stroke="#263238" stroke-miterlimit="10" stroke-linecap="round" stroke-linejoin="round"/>
<path d="M438.441 153.528C438.441 168.322 443.263 180.314 449.21 180.314C455.157 180.314 459.979 168.321 459.979 153.528C459.979 138.735 455.158 109.586 449.21 109.586C443.262 109.586 438.441 138.734 438.441 153.528Z" fill="#C82121" stroke="#263238" stroke-miterlimit="10" stroke-linecap="round" stroke-linejoin="round"/>
<path d="M449.596 133.156L451.088 210.439H446.91L449.596 133.156Z" fill="#263238" stroke="#263238" stroke-miterlimit="10" stroke-linecap="round" stroke-linejoin="round"/>
<path d="M244.357 46.2113V38.7812H257.217V46.2113C268.364 48.4973 274.079 57.0712 274.079 70.6452V73.7893H259.219V69.6452C259.219 62.5012 256.361 59.7863 251.36 59.7863C246.359 59.7863 243.501 62.5012 243.501 69.6452C243.501 90.2222 274.223 91.2223 274.223 119.801C274.223 133.376 268.365 142.093 257.218 144.379V151.667H244.358V144.379C233.07 142.093 227.355 133.376 227.355 119.801V112.942H242.216V120.801C242.216 127.946 245.359 130.518 250.361 130.518C255.362 130.518 258.506 127.946 258.506 120.801C258.506 100.225 227.783 99.2252 227.783 70.6452C227.782 57.2142 233.355 48.6403 244.357 46.2113Z" fill="white" stroke="#263238" stroke-miterlimit="10" stroke-linecap="round" stroke-linejoin="round"/>
<path d="M239.69 46.2113V38.7812H252.55V46.2113C263.697 48.4973 269.412 57.0712 269.412 70.6452V73.7893H254.551V69.6452C254.551 62.5012 251.693 59.7863 246.692 59.7863C241.691 59.7863 238.833 62.5012 238.833 69.6452C238.833 90.2222 269.555 91.2223 269.555 119.801C269.555 133.376 263.697 142.093 252.55 144.379V151.667H239.69V144.379C228.402 142.093 222.688 133.376 222.688 119.801V112.942H237.548V120.801C237.548 127.946 240.691 130.518 245.693 130.518C250.694 130.518 253.839 127.946 253.839 120.801C253.839 100.225 223.115 99.2252 223.115 70.6452C223.115 57.2142 228.688 48.6403 239.69 46.2113Z" fill="#263238" stroke="#263238" stroke-miterlimit="10" stroke-linecap="round" stroke-linejoin="round"/>
<path d="M97.667 124.664H95V152.331H97.667V124.664Z" fill="#263238"/>
<path d="M104.62 194.757C108.728 190.534 108.636 183.781 104.414 179.673C100.192 175.564 93.4383 175.656 89.3298 179.878C85.2213 184.101 85.3134 190.854 89.5357 194.963C93.7579 199.071 100.511 198.979 104.62 194.757Z" fill="white" stroke="#263238" stroke-miterlimit="10" stroke-linecap="round" stroke-linejoin="round"/>
<path d="M133.037 190.777L107.237 160.605H107.29V148.219H86.3874V160.605H86.6214L60.8984 190.777H133.037Z" fill="#263238"/>
<path d="M97.668 203V211" stroke="#263238" stroke-miterlimit="10" stroke-linecap="round" stroke-linejoin="round"/>
<path d="M86.3359 200.328L82.3359 203.995" stroke="#263238" stroke-miterlimit="10" stroke-linecap="round" stroke-linejoin="round"/>
<path d="M108.336 200.328L112.336 203.995" stroke="#263238" stroke-miterlimit="10" stroke-linecap="round" stroke-linejoin="round"/>
<path d="M67.6687 330.837C73.3021 330.837 77.8688 326.271 77.8688 320.638C77.8688 315.004 73.3021 310.438 67.6687 310.438C62.0354 310.438 57.4688 315.004 57.4688 320.638C57.4688 326.271 62.0354 330.837 67.6687 330.837Z" fill="#263238" stroke="#263238" stroke-miterlimit="10" stroke-linecap="round" stroke-linejoin="round"/>
<path d="M133.462 330.837C139.095 330.837 143.662 326.271 143.662 320.638C143.662 315.004 139.095 310.438 133.462 310.438C127.828 310.438 123.262 315.004 123.262 320.638C123.262 326.271 127.828 330.837 133.462 330.837Z" fill="#263238" stroke="#263238" stroke-miterlimit="10" stroke-linecap="round" stroke-linejoin="round"/>
<path d="M118.894 277.18H84.7253L70.6562 295.27H107.84L118.894 277.18Z" fill="white" stroke="#263238" stroke-miterlimit="10" stroke-linecap="round" stroke-linejoin="round"/>
<path d="M115.901 278.305H85.9772L73.6562 294.147H106.219L115.901 278.305Z" fill="white" stroke="#263238" stroke-miterlimit="10" stroke-linecap="round" stroke-linejoin="round"/>
<path d="M70.658 295.273L41.625 305.825H80.317L107.842 295.273H70.658Z" fill="#C82121" stroke="#263238" stroke-miterlimit="10" stroke-linecap="round" stroke-linejoin="round"/>
<path d="M79.91 305.82H41.625V312.983H79.91V305.82Z" fill="white" stroke="#263238" stroke-miterlimit="10" stroke-linecap="round" stroke-linejoin="round"/>
<path d="M67.6705 305.82H51.6055V312.983H67.6705V305.82Z" fill="#263238" stroke="#263238" stroke-miterlimit="10" stroke-linecap="round" stroke-linejoin="round"/>
<path d="M81.441 312.727H39.875V318.592H81.441V312.727Z" fill="#263238" stroke="#263238" stroke-miterlimit="10" stroke-linecap="round" stroke-linejoin="round"/>
<path d="M162.785 293.094L155.135 277.18H118.895L107.84 295.27L79.9084 305.822L79.3984 318.595H93.8704C94.8344 313.232 99.5144 309.16 105.154 309.16C110.794 309.16 115.474 313.232 116.438 318.595H145.382C146.346 313.232 151.025 309.16 156.666 309.16C162.306 309.16 166.986 313.232 167.95 318.595H168.141L174.516 314.26V295.135L162.785 293.094Z" fill="#C82121" stroke="#263238" stroke-miterlimit="10" stroke-linecap="round" stroke-linejoin="round"/>
<path d="M105.157 330.837C110.79 330.837 115.357 326.271 115.357 320.638C115.357 315.004 110.79 310.438 105.157 310.438C99.5237 310.438 94.957 315.004 94.957 320.638C94.957 326.271 99.5237 330.837 105.157 330.837Z" fill="#263238" stroke="#263238" stroke-miterlimit="10" stroke-linecap="round" stroke-linejoin="round"/>
<path d="M105.155 326.936C108.635 326.936 111.455 324.115 111.455 320.636C111.455 317.157 108.635 314.336 105.155 314.336C101.676 314.336 98.8555 317.157 98.8555 320.636C98.8555 324.115 101.676 326.936 105.155 326.936Z" fill="white" stroke="#263238" stroke-miterlimit="10" stroke-linecap="round" stroke-linejoin="round"/>
<path d="M156.669 330.837C162.302 330.837 166.869 326.271 166.869 320.638C166.869 315.004 162.302 310.438 156.669 310.438C151.035 310.438 146.469 315.004 146.469 320.638C146.469 326.271 151.035 330.837 156.669 330.837Z" fill="#263238" stroke="#263238" stroke-miterlimit="10" stroke-linecap="round" stroke-linejoin="round"/>
<path d="M156.667 326.936C160.147 326.936 162.967 324.115 162.967 320.636C162.967 317.157 160.147 314.336 156.667 314.336C153.188 314.336 150.367 317.157 150.367 320.636C150.367 324.115 153.188 326.936 156.667 326.936Z" fill="white" stroke="#263238" stroke-miterlimit="10" stroke-linecap="round" stroke-linejoin="round"/>
<path d="M77.1044 306.609H70.9844V311.454H77.1044V306.609Z" fill="white" stroke="#263238" stroke-miterlimit="10" stroke-linecap="round" stroke-linejoin="round"/>
<path d="M49.0536 306.609H42.9336V311.454H49.0536V306.609Z" fill="white" stroke="#263238" stroke-miterlimit="10" stroke-linecap="round" stroke-linejoin="round"/>
<path d="M110.766 295.135H138.051V279.07H120.201L110.766 295.135Z" fill="white" stroke="#263238" stroke-miterlimit="10" stroke-linecap="round" stroke-linejoin="round"/>
<path d="M140.602 295.13V279.32H153.608L161.003 295.13H140.602Z" fill="white" stroke="#263238" stroke-miterlimit="10" stroke-linecap="round" stroke-linejoin="round"/>
<path d="M139.581 297.172V316.042H118.926" stroke="#263238" stroke-miterlimit="10" stroke-linecap="round" stroke-linejoin="round"/>
<path d="M161.766 296.664L163.296 300.489V308.394" stroke="#263238" stroke-miterlimit="10" stroke-linecap="round" stroke-linejoin="round"/>
<path d="M133.715 301H136.775" stroke="#263238" stroke-miterlimit="10" stroke-linecap="round" stroke-linejoin="round"/>
<path d="M156.668 301H159.728" stroke="#263238" stroke-miterlimit="10" stroke-linecap="round" stroke-linejoin="round"/>
<path d="M176.811 310.438H170.691V315.538H176.811V310.438Z" fill="#263238" stroke="#263238" stroke-miterlimit="10" stroke-linecap="round" stroke-linejoin="round"/>
<path d="M174.772 300.742H172.477V307.117H174.772V300.742Z" fill="white" stroke="#263238" stroke-miterlimit="10" stroke-linecap="round" stroke-linejoin="round"/>
<path d="M90.8192 287.875L88.3242 289.015" stroke="#263238" stroke-miterlimit="10" stroke-linecap="round" stroke-linejoin="round"/>
<path d="M108.981 279.578L93.5273 286.637" stroke="#263238" stroke-miterlimit="10" stroke-linecap="round" stroke-linejoin="round"/>
<path d="M92.1508 285.188L82.7148 289.522" stroke="#263238" stroke-miterlimit="10" stroke-linecap="round" stroke-linejoin="round"/>
<path d="M126.062 290.5L123.262 291.818" stroke="#263238" stroke-miterlimit="10" stroke-linecap="round" stroke-linejoin="round"/>
<path d="M136.268 285.695L128.016 289.578" stroke="#263238" stroke-miterlimit="10" stroke-linecap="round" stroke-linejoin="round"/>
<path d="M135.246 281.617L130.656 283.657" stroke="#263238" stroke-miterlimit="10" stroke-linecap="round" stroke-linejoin="round"/>
<path d="M173.692 138.641L127.082 160.489" stroke="#263238" stroke-miterlimit="10" stroke-linecap="round" stroke-linejoin="round"/>
<path d="M203.436 124.695L177.43 136.886" stroke="#263238" stroke-miterlimit="10" stroke-linecap="round" stroke-linejoin="round"/>
<path d="M161.908 251.414L150.941 269.448" stroke="#263238" stroke-miterlimit="10" stroke-linecap="round" stroke-linejoin="round"/>
<path d="M222.525 151.734L163.984 248.002" stroke="#263238" stroke-miterlimit="10" stroke-linecap="round" stroke-linejoin="round"/>
<path d="M298.801 128.391L367.28 160.49" stroke="#263238" stroke-miterlimit="10" stroke-linecap="round" stroke-linejoin="round"/>
<path d="M290.926 124.695L295.508 126.843" stroke="#263238" stroke-miterlimit="10" stroke-linecap="round" stroke-linejoin="round"/>
<path d="M327.148 242.695L343.42 269.453" stroke="#263238" stroke-miterlimit="10" stroke-linecap="round" stroke-linejoin="round"/>
<path d="M271.836 151.734L324.972 239.114" stroke="#263238" stroke-miterlimit="10" stroke-linecap="round" stroke-linejoin="round"/>
<path d="M230.581 447.47C230.581 447.47 224.927 454.879 223.367 457.219C221.807 459.559 219.662 462.094 221.222 465.603C222.782 469.113 229.021 469.503 232.531 468.723C236.041 467.943 238.185 464.823 240.135 460.924C242.085 457.024 245.594 453.125 246.374 451.565C247.154 450.005 247.544 446.105 246.764 445.326C245.984 444.545 234.09 443.18 230.581 447.47Z" fill="#263238"/>
<path d="M235.978 466.93C235.695 466.562 235.396 466.188 235.065 465.8C230.299 460.222 225.746 458.709 222.472 458.539C221.142 460.528 219.949 462.742 221.222 465.605C222.782 469.115 229.021 469.505 232.531 468.725C233.853 468.431 234.981 467.804 235.978 466.93Z" fill="white" stroke="#263238" stroke-miterlimit="10" stroke-linecap="round" stroke-linejoin="round"/>
<path d="M239.162 459.556C236.627 462.871 235.262 467.55 229.413 467.355C224.785 467.201 221.752 464.368 220.684 463.189C220.685 463.942 220.842 464.742 221.224 465.6C222.784 469.11 229.023 469.5 232.533 468.72C236.043 467.94 238.187 464.82 240.137 460.921C242.087 457.021 245.596 453.123 246.376 451.563C246.376 451.563 241.697 456.241 239.162 459.556Z" fill="white" stroke="#263238" stroke-miterlimit="10" stroke-linecap="round" stroke-linejoin="round"/>
<path d="M234.481 448.25C234.091 448.835 227.462 453.32 229.217 455.464C230.972 457.609 234.481 456.244 236.626 453.709C238.771 451.174 239.746 449.809 239.746 449.809L234.481 448.25Z" fill="white" stroke="#263238" stroke-miterlimit="10" stroke-linecap="round" stroke-linejoin="round"/>
<path d="M271.604 447.47C271.604 447.47 277.258 454.879 278.818 457.219C280.378 459.559 282.523 462.094 280.963 465.603C279.403 469.113 273.164 469.503 269.654 468.723C266.144 467.943 264 464.823 262.05 460.924C260.1 457.025 256.59 453.125 255.811 451.565C255.031 450.005 254.641 446.105 255.421 445.326C256.201 444.545 268.095 443.18 271.604 447.47Z" fill="#263238"/>
<path d="M266.207 466.93C266.49 466.562 266.789 466.188 267.12 465.8C271.887 460.222 276.439 458.709 279.713 458.539C281.043 460.528 282.236 462.742 280.963 465.605C279.403 469.115 273.164 469.505 269.654 468.725C268.332 468.431 267.204 467.804 266.207 466.93Z" fill="white" stroke="#263238" stroke-miterlimit="10" stroke-linecap="round" stroke-linejoin="round"/>
<path d="M263.026 459.556C265.561 462.871 266.927 467.55 272.776 467.355C277.404 467.201 280.436 464.368 281.504 463.189C281.503 463.942 281.347 464.742 280.965 465.6C279.405 469.11 273.165 469.5 269.655 468.72C266.145 467.94 264.001 464.82 262.051 460.921C260.101 457.022 256.591 453.123 255.812 451.563C255.812 451.563 260.491 456.241 263.026 459.556Z" fill="white" stroke="#263238" stroke-miterlimit="10" stroke-linecap="round" stroke-linejoin="round"/>
<path d="M266.203 445.891C266.593 446.476 273.222 450.96 271.467 453.105C269.712 455.25 266.203 453.885 264.058 451.35C261.913 448.815 260.938 447.45 260.938 447.45L266.203 445.891Z" fill="white" stroke="#263238" stroke-miterlimit="10" stroke-linecap="round" stroke-linejoin="round"/>
<path d="M226.457 318.342C226.457 318.342 227.698 329.195 227.698 330.755C227.698 332.315 226.807 344.495 228.562 353.854C230.317 363.213 230.582 382.344 228.827 388.389C227.072 394.433 226.487 399.698 228.632 407.692C230.777 415.686 233.896 440.644 232.922 442.398C231.947 444.153 230.582 446.103 230.582 447.468C230.582 448.833 230.582 448.833 230.582 448.833C230.582 448.833 237.601 450.978 240.526 452.148C243.451 453.318 246.375 451.563 246.375 451.563C246.375 451.563 248.325 448.638 248.52 445.324C248.715 442.009 248.91 439.669 248.715 438.5C248.52 437.33 246.96 402.039 246.57 390.535C246.18 379.031 247.015 345.58 247.015 345.58L251.695 344.41C251.695 344.41 255.344 363.237 255.149 379.616C254.954 395.994 255.149 441.62 254.564 444.739C253.979 447.859 253.967 448.319 254.162 449.684C254.357 451.049 254.553 451.295 255.723 451.88C256.893 452.465 259.049 448.444 263.143 447.469C267.238 446.494 270.357 446.104 270.357 446.104C270.357 446.104 271.332 443.959 271.137 441.424C270.942 438.889 270.942 439.279 270.747 436.16C270.552 433.04 275.427 404.378 274.647 396.774C273.867 389.17 273.282 387.415 273.282 379.226C273.282 371.037 273.087 333.601 273.087 328.531C273.087 323.461 273.672 318.782 273.867 318.197C274.062 317.612 258.074 322.486 247.545 321.902C237.017 321.315 226.457 318.342 226.457 318.342Z" fill="#263238" stroke="#263238" stroke-miterlimit="10" stroke-linecap="round" stroke-linejoin="round"/>
<path d="M279.09 282.75L270.09 268.5L268.59 244.75C268.59 244.75 279.59 259.5 283.84 264.5C288.09 269.5 290.34 278.25 288.59 280.75C286.84 283.25 281.09 287.25 279.09 282.75Z" fill="white" stroke="#263238" stroke-miterlimit="10" stroke-linecap="round" stroke-linejoin="round"/>
<path d="M229.353 244.695C229.349 244.697 224.923 246.336 223.591 250.001C222.258 253.668 200.258 281.001 200.258 285.001C200.258 289.001 207.925 292.334 212.258 292.334C216.591 292.334 217.057 289.762 217.057 289.762L227.591 274.667L229.353 244.695Z" fill="#C82121" stroke="#263238" stroke-miterlimit="10" stroke-linecap="round" stroke-linejoin="round"/>
<path d="M244.424 241.96C244.424 241.96 232.081 243.526 229.351 244.696C226.621 245.866 227.791 268.484 227.791 275.893C227.791 283.302 226.845 309.993 226.455 312.138C226.065 314.283 225.121 319.757 225.121 319.757C225.121 319.757 227.266 323.462 232.14 328.141C237.014 332.821 245.009 335.355 245.009 335.355L249.689 326.581L251.054 336.525C251.054 336.525 256.124 335.355 260.023 333.21C263.923 331.065 272.697 322.681 273.282 321.706C273.867 320.731 274.647 318.391 274.647 318.391C274.647 318.391 272.697 250.148 272.502 247.223C272.307 244.298 273.087 243.518 270.942 242.543C268.797 241.568 259.633 240.398 256.709 240.398C253.783 240.4 244.424 241.96 244.424 241.96Z" fill="#C82121" stroke="#263238" stroke-miterlimit="10" stroke-linecap="round" stroke-linejoin="round"/>
<path d="M250.418 316.625L250.25 322.149" stroke="#263238" stroke-miterlimit="10" stroke-linecap="round" stroke-linejoin="round"/>
<path d="M252.099 261.57L250.555 312.196" stroke="#263238" stroke-miterlimit="10" stroke-linecap="round" stroke-linejoin="round"/>
<path d="M248.325 235.913C248.325 235.913 244.425 236.888 243.255 239.813C242.085 242.738 236.176 248.203 236.176 248.203L245.985 247.807L243.84 251.902L252.419 258.531L260.803 251.707L260.413 248.392L266.068 248.977C266.068 248.977 263.338 241.373 260.413 238.058C257.489 234.743 250.47 234.158 248.325 235.913Z" fill="#C82121" stroke="#263238" stroke-miterlimit="10" stroke-linecap="round" stroke-linejoin="round"/>
<path d="M247.429 225.836C247.429 225.836 246.376 242.156 246.571 246.251C246.766 250.345 251.251 256.39 252.42 256.78C253.59 257.17 259.814 247.974 259.244 243.521C258.866 240.565 259.329 226.497 259.329 226.497L247.429 225.836Z" fill="white" stroke="#263238" stroke-miterlimit="10" stroke-linecap="round" stroke-linejoin="round"/>
<path d="M252.942 219.719C266.506 217.591 276.013 206.379 274.177 194.677C272.341 182.975 259.857 175.214 246.294 177.342C232.73 179.47 223.223 190.682 225.059 202.384C226.895 214.086 239.379 221.847 252.942 219.719Z" fill="#263238"/>
<path d="M238.718 215.253C238.718 215.253 235.73 212.564 233.034 212.987C230.337 213.41 231.213 218.996 234.141 221.3C237.068 223.604 239.421 222.248 239.421 222.248C239.421 222.248 242.952 228.404 248.161 230.153C253.37 231.902 259.371 231.158 262.487 227.116C265.603 223.075 266.245 219.619 266.245 219.619C266.245 219.619 271.427 217.424 272.839 213.848C274.252 210.271 272.186 208.424 269.874 208.787C267.563 209.15 265.534 210.06 265.534 210.06C265.534 210.06 262.252 208.009 261.678 204.349C261.104 200.689 263.952 201.229 260.783 197.384C257.614 193.539 254.736 192.807 248.055 194.249C241.373 195.692 237.649 199.631 238.224 203.291C238.798 206.951 241.038 207.389 240.437 209.852C239.836 212.315 238.718 215.253 238.718 215.253Z" fill="white" stroke="#263238" stroke-miterlimit="10" stroke-linecap="round" stroke-linejoin="round"/>
<path d="M253.395 210.156C253.395 210.156 256.304 216.87 255.633 217.989C254.962 219.108 251.828 219.332 250.262 219.108" stroke="#263238" stroke-miterlimit="10" stroke-linecap="round" stroke-linejoin="round"/>
<path d="M246.912 209.659C246.798 208.931 246.115 208.433 245.386 208.547C244.658 208.661 244.16 209.345 244.274 210.074C244.388 210.802 245.071 211.299 245.8 211.185C246.528 211.07 247.026 210.387 246.912 209.659Z" fill="#353636"/>
<path d="M259.025 207.949C258.911 207.221 258.228 206.723 257.499 206.837C256.771 206.951 256.273 207.634 256.387 208.363C256.501 209.091 257.184 209.589 257.913 209.475C258.642 209.36 259.139 208.677 259.025 207.949Z" fill="#353636"/>
<path d="M241.144 206.201C241.144 206.201 240.967 207.275 242.303 207.12C243.639 206.966 245.038 206.052 246.226 205.915C247.414 205.778 248.995 205.144 248.727 204.122C248.459 203.1 246.232 203.357 244.37 204.174C242.509 204.991 241.652 205.39 241.144 206.201Z" fill="#263238"/>
<path d="M252.642 207.236C252.642 207.236 252.296 208.268 253.64 208.329C254.984 208.39 256.51 207.711 257.705 207.766C258.899 207.82 260.562 207.447 260.46 206.395C260.358 205.343 258.119 205.241 256.151 205.75C254.183 206.258 253.273 206.516 252.642 207.236Z" fill="#263238"/>
<path d="M254.05 229.629C254.05 229.629 251.355 229.737 250.169 229.198C248.983 228.659 246.504 228.767 247.474 230.599C248.444 232.432 251.678 232.863 252.648 232.755C253.619 232.648 255.775 231.031 254.05 229.629Z" fill="white" stroke="#263238" stroke-miterlimit="10" stroke-linecap="round" stroke-linejoin="round"/>
<path d="M265.833 242.483L272.142 239.131C267.656 234.149 263.957 230.189 263.957 230.189L260.834 226.826C260.834 226.826 257.168 221.812 256.207 221.332C255.246 220.852 248.823 223.463 248.583 224.184C248.343 224.905 248.103 226.826 249.304 226.826C250.505 226.826 250.925 225.212 250.925 225.212L255.549 224.183L256.746 226.074C256.746 226.074 251.465 228.267 250.745 228.987C250.024 229.707 252.427 234.031 252.907 234.752C253.387 235.473 254.589 235.953 255.549 235.953C256.51 235.953 258.432 234.272 258.432 234.272C258.432 234.272 258.672 236.914 260.354 236.914C262.036 236.914 263.717 236.914 263.717 236.914C263.717 236.914 264.565 239.147 265.833 242.483Z" fill="white" stroke="#263238" stroke-miterlimit="10" stroke-linecap="round" stroke-linejoin="round"/>
<path d="M251.786 232.755C251.786 232.755 251.57 230.491 252.541 229.952C253.512 229.413 257.5 228.227 257.5 228.227" stroke="#263238" stroke-miterlimit="10" stroke-linecap="round" stroke-linejoin="round"/>
<path d="M254.049 235.453C254.049 235.453 253.402 232.543 254.265 231.896C255.127 231.249 257.93 230.602 257.93 230.602" stroke="#263238" stroke-miterlimit="10" stroke-linecap="round" stroke-linejoin="round"/>
<path d="M258.431 234.272C258.431 234.272 258.686 232.758 258.039 232.758C257.392 232.758 256.422 233.512 256.422 233.512" stroke="#263238" stroke-miterlimit="10" stroke-linecap="round" stroke-linejoin="round"/>
<path d="M269.712 235.289L263.562 239.462L265.1 243.635L272.788 237.705L269.712 235.289Z" fill="#C82121" stroke="#263238" stroke-miterlimit="10" stroke-linecap="round" stroke-linejoin="round"/>
<path d="M265.102 243.636C265.102 243.636 264.185 244.22 266.071 248.98C267.957 253.74 276.083 276.582 278.719 281.853C281.355 287.124 288.383 285.367 292.336 283.39C296.289 281.413 298.925 275.264 296.07 268.016C293.215 260.768 274.326 237.926 274.326 237.926C274.326 237.926 274.985 237.267 272.788 237.706C270.593 238.146 265.102 243.636 265.102 243.636Z" fill="#C82121" stroke="#263238" stroke-miterlimit="10" stroke-linecap="round" stroke-linejoin="round"/>
<path d="M230.26 298.673L225.593 295.34C225.593 295.34 225.593 291.34 223.593 289.673C221.593 288.006 214.926 285.34 211.926 284.34C208.926 283.34 203.26 281.006 200.26 285.006C197.26 289.006 196.593 294.339 199.593 296.339C202.593 298.339 213.926 304.672 219.26 305.339C224.593 306.006 225.26 303.672 225.26 303.672L227.435 304.353L230.26 298.673Z" fill="#C82121" stroke="#263238" stroke-miterlimit="10" stroke-linecap="round" stroke-linejoin="round"/>
<path d="M244.099 295.672C244.099 295.672 247.461 298.222 249.587 298.222C251.713 298.222 254.763 298.89 251.727 300.711C248.691 302.533 244.441 302.229 242.619 300.104C240.796 297.979 244.099 295.672 244.099 295.672Z" fill="white" stroke="#263238" stroke-miterlimit="10" stroke-linecap="round" stroke-linejoin="round"/>
<path d="M232.293 297.067L239.883 291.906C239.883 291.906 247.473 297.067 247.473 298.889C247.473 300.711 240.85 307.032 240.85 307.032L235.842 306.71C235.842 306.71 235.025 306.782 233.204 306.782C231.382 306.782 227.436 304.353 227.436 304.353C227.436 304.353 225.918 303.139 227.436 300.103C228.954 297.067 232.293 297.067 232.293 297.067Z" fill="white" stroke="#263238" stroke-miterlimit="10" stroke-linecap="round" stroke-linejoin="round"/>
<path d="M234.977 306.644L234.746 303.475L237.064 303.32" fill="white"/>
<path d="M234.977 306.644L234.746 303.475L237.064 303.32" stroke="#263238" stroke-miterlimit="10" stroke-linecap="round" stroke-linejoin="round"/>
<path d="M240.188 294.336L245.955 301.015" stroke="#263238" stroke-miterlimit="10" stroke-linecap="round" stroke-linejoin="round"/>
<path d="M237.062 300.156C237.062 300.156 241.699 305.257 241.081 306.571Z" fill="white"/>
<path d="M237.062 300.156C237.062 300.156 241.699 305.257 241.081 306.571" stroke="#263238" stroke-miterlimit="10" stroke-linecap="round" stroke-linejoin="round"/>
<path d="M238.301 297.297C238.301 297.297 242.707 300.775 243.943 303.48Z" fill="white"/>
<path d="M238.301 297.297C238.301 297.297 242.707 300.775 243.943 303.48" stroke="#263238" stroke-miterlimit="10" stroke-linecap="round" stroke-linejoin="round"/>
<path d="M435.472 443.219C428.443 436.832 409.57 432.314 387.456 432.416C366.804 432.511 349.117 436.61 341.319 442.405L336.941 442.367L337.055 449.119C337.209 458.215 360.023 465.484 388.012 465.355C416.001 465.226 438.567 457.748 438.413 448.652L438.322 443.244L435.472 443.219Z" fill="white" stroke="#263238" stroke-miterlimit="10" stroke-linecap="round" stroke-linejoin="round"/>
<path d="M387.715 459.936C415.705 459.846 438.371 452.4 438.342 443.303C438.313 434.206 415.599 426.905 387.61 426.994C359.62 427.084 336.953 434.531 336.982 443.627C337.012 452.724 359.725 460.026 387.715 459.936Z" fill="white" stroke="#263238" stroke-miterlimit="10" stroke-linecap="round" stroke-linejoin="round"/>
<path d="M430.986 443.278C431.118 451.057 411.818 457.453 387.88 457.564C363.942 457.674 344.43 451.457 344.298 443.678C344.167 435.899 363.466 429.503 387.404 429.392C411.342 429.282 430.855 435.499 430.986 443.278Z" fill="white" stroke="#263238" stroke-miterlimit="10" stroke-linecap="round" stroke-linejoin="round"/>
<path d="M383.875 434.178L383.852 432.822L391.073 432.789L391.096 434.145C397.362 434.533 400.597 436.083 400.639 438.56L400.649 439.134L392.305 439.173L392.292 438.417C392.27 437.114 390.657 436.625 387.849 436.638C385.041 436.651 383.444 437.154 383.466 438.457C383.53 442.212 400.783 442.315 400.871 447.529C400.913 450.006 397.651 451.612 391.399 452.058L391.421 453.388L384.2 453.421L384.178 452.091C377.833 451.703 374.597 450.127 374.556 447.65L374.535 446.399L382.878 446.36L382.902 447.794C382.924 449.098 384.697 449.559 387.505 449.546C390.314 449.533 392.071 449.056 392.049 447.752C391.986 443.997 374.733 443.894 374.644 438.68C374.602 436.229 377.705 434.65 383.875 434.178Z" fill="white" stroke="#263238" stroke-miterlimit="10" stroke-linecap="round" stroke-linejoin="round"/>
<path d="M383.857 433.202L383.834 431.845L391.055 431.812L391.078 433.168C397.344 433.556 400.579 435.106 400.621 437.583L400.631 438.158L392.288 438.195L392.275 437.44C392.253 436.137 390.64 435.647 387.831 435.66C385.023 435.673 383.426 436.176 383.448 437.479C383.511 441.233 400.765 441.338 400.853 446.552C400.895 449.029 397.633 450.635 391.381 451.081L391.403 452.41L384.182 452.444L384.16 451.113C377.815 450.725 374.579 449.151 374.537 446.673L374.516 445.422L382.859 445.384L382.883 446.818C382.905 448.122 384.678 448.582 387.486 448.569C390.295 448.556 392.052 448.08 392.03 446.776C391.966 443.021 374.713 442.917 374.625 437.703C374.585 435.251 377.688 433.673 383.857 433.202Z" fill="white" stroke="#263238" stroke-miterlimit="10" stroke-linecap="round" stroke-linejoin="round"/>
<path d="M340.402 454.912L340.32 450.07" stroke="#263238" stroke-miterlimit="10" stroke-linecap="round" stroke-linejoin="round"/>
<path d="M344.364 457.121L344.289 452.672" stroke="#263238" stroke-miterlimit="10" stroke-linecap="round" stroke-linejoin="round"/>
<path d="M348.64 459.194L348.559 454.352" stroke="#263238" stroke-miterlimit="10" stroke-linecap="round" stroke-linejoin="round"/>
<path d="M354.487 461.257L354.398 456.023" stroke="#263238" stroke-miterlimit="10" stroke-linecap="round" stroke-linejoin="round"/>
<path d="M361.379 460.135L361.34 457.828" stroke="#263238" stroke-miterlimit="10" stroke-linecap="round" stroke-linejoin="round"/>
<path d="M361.426 462.932L361.41 462.016" stroke="#263238" stroke-miterlimit="10" stroke-linecap="round" stroke-linejoin="round"/>
<path d="M370.406 464.456L370.32 459.352" stroke="#263238" stroke-miterlimit="10" stroke-linecap="round" stroke-linejoin="round"/>
<path d="M382.297 461.652L382.266 459.82" stroke="#263238" stroke-miterlimit="10" stroke-linecap="round" stroke-linejoin="round"/>
<path d="M382.352 465.19L382.328 463.75" stroke="#263238" stroke-miterlimit="10" stroke-linecap="round" stroke-linejoin="round"/>
<path d="M435.472 435.219C428.443 428.832 409.57 424.314 387.456 424.416C366.804 424.511 349.117 428.61 341.319 434.405L336.941 434.367L337.055 441.119C337.209 450.215 360.023 457.484 388.012 457.355C416.001 457.226 438.567 449.748 438.413 440.652L438.322 435.244L435.472 435.219Z" fill="white" stroke="#263238" stroke-miterlimit="10" stroke-linecap="round" stroke-linejoin="round"/>
<path d="M387.715 451.936C415.705 451.846 438.371 444.4 438.342 435.303C438.313 426.206 415.599 418.905 387.61 418.994C359.62 419.084 336.953 426.531 336.982 435.627C337.012 444.724 359.725 452.026 387.715 451.936Z" fill="white" stroke="#263238" stroke-miterlimit="10" stroke-linecap="round" stroke-linejoin="round"/>
<path d="M430.986 435.278C431.118 443.057 411.818 449.453 387.88 449.564C363.942 449.674 344.43 443.457 344.298 435.678C344.167 427.899 363.466 421.503 387.404 421.392C411.342 421.282 430.855 427.499 430.986 435.278Z" fill="white" stroke="#263238" stroke-miterlimit="10" stroke-linecap="round" stroke-linejoin="round"/>
<path d="M383.875 426.178L383.852 424.822L391.073 424.789L391.096 426.145C397.362 426.533 400.597 428.083 400.639 430.56L400.649 431.134L392.305 431.173L392.292 430.417C392.27 429.114 390.657 428.625 387.849 428.638C385.041 428.651 383.444 429.154 383.466 430.457C383.53 434.212 400.783 434.315 400.871 439.529C400.913 442.006 397.651 443.612 391.399 444.058L391.421 445.388L384.2 445.421L384.178 444.091C377.833 443.703 374.597 442.127 374.556 439.65L374.535 438.399L382.878 438.36L382.902 439.794C382.924 441.098 384.697 441.559 387.505 441.546C390.314 441.533 392.071 441.056 392.049 439.752C391.986 435.997 374.733 435.894 374.644 430.68C374.602 428.229 377.705 426.65 383.875 426.178Z" fill="white" stroke="#263238" stroke-miterlimit="10" stroke-linecap="round" stroke-linejoin="round"/>
<path d="M383.857 425.202L383.834 423.845L391.055 423.812L391.078 425.168C397.344 425.556 400.579 427.106 400.621 429.583L400.631 430.158L392.288 430.195L392.275 429.44C392.253 428.137 390.64 427.647 387.831 427.66C385.023 427.673 383.426 428.176 383.448 429.479C383.511 433.233 400.765 433.338 400.853 438.552C400.895 441.029 397.633 442.635 391.381 443.081L391.403 444.41L384.182 444.444L384.16 443.113C377.815 442.725 374.579 441.151 374.537 438.673L374.516 437.422L382.859 437.384L382.883 438.818C382.905 440.122 384.678 440.582 387.486 440.569C390.295 440.556 392.052 440.08 392.03 438.776C391.966 435.021 374.713 434.917 374.625 429.703C374.585 427.251 377.688 425.673 383.857 425.202Z" fill="white" stroke="#263238" stroke-miterlimit="10" stroke-linecap="round" stroke-linejoin="round"/>
<path d="M340.402 446.912L340.32 442.07" stroke="#263238" stroke-miterlimit="10" stroke-linecap="round" stroke-linejoin="round"/>
<path d="M344.368 449.121L344.293 444.672" stroke="#263238" stroke-miterlimit="10" stroke-linecap="round" stroke-linejoin="round"/>
<path d="M348.64 451.194L348.559 446.352" stroke="#263238" stroke-miterlimit="10" stroke-linecap="round" stroke-linejoin="round"/>
<path d="M354.487 453.257L354.398 448.023" stroke="#263238" stroke-miterlimit="10" stroke-linecap="round" stroke-linejoin="round"/>
<path d="M361.379 452.135L361.34 449.828" stroke="#263238" stroke-miterlimit="10" stroke-linecap="round" stroke-linejoin="round"/>
<path d="M361.426 454.932L361.41 454.016" stroke="#263238" stroke-miterlimit="10" stroke-linecap="round" stroke-linejoin="round"/>
<path d="M370.406 456.456L370.32 451.352" stroke="#263238" stroke-miterlimit="10" stroke-linecap="round" stroke-linejoin="round"/>
<path d="M382.297 453.652L382.266 451.82" stroke="#263238" stroke-miterlimit="10" stroke-linecap="round" stroke-linejoin="round"/>
<path d="M382.356 457.19L382.332 455.75" stroke="#263238" stroke-miterlimit="10" stroke-linecap="round" stroke-linejoin="round"/>
<path d="M438.519 427.211C431.49 420.824 412.617 416.306 390.503 416.408C369.851 416.503 352.164 420.602 344.366 426.397L339.988 426.359L340.102 433.111C340.256 442.207 363.07 449.476 391.059 449.347C419.048 449.218 441.614 441.74 441.46 432.644L441.369 427.236L438.519 427.211Z" fill="white" stroke="#263238" stroke-miterlimit="10" stroke-linecap="round" stroke-linejoin="round"/>
<path d="M390.762 443.928C418.752 443.839 441.418 436.392 441.389 427.295C441.36 418.198 418.646 410.897 390.657 410.986C362.667 411.076 340 418.523 340.029 427.619C340.058 436.716 362.772 444.018 390.762 443.928Z" fill="white" stroke="#263238" stroke-miterlimit="10" stroke-linecap="round" stroke-linejoin="round"/>
<path d="M434.032 427.27C434.164 435.049 414.864 441.445 390.926 441.556C366.988 441.666 347.476 435.449 347.344 427.67C347.213 419.891 366.512 413.495 390.45 413.384C414.388 413.274 433.901 419.491 434.032 427.27Z" fill="white" stroke="#263238" stroke-miterlimit="10" stroke-linecap="round" stroke-linejoin="round"/>
<path d="M386.922 418.17L386.899 416.814L394.12 416.781L394.143 418.137C400.409 418.525 403.644 420.075 403.686 422.552L403.696 423.126L395.352 423.165L395.339 422.409C395.317 421.106 393.704 420.617 390.896 420.63C388.088 420.643 386.491 421.146 386.513 422.449C386.577 426.204 403.83 426.307 403.918 431.521C403.96 433.998 400.698 435.604 394.446 436.05L394.468 437.38L387.247 437.413L387.225 436.083C380.88 435.695 377.644 434.119 377.603 431.642L377.582 430.391L385.925 430.352L385.949 431.786C385.971 433.09 387.744 433.551 390.552 433.538C393.361 433.525 395.118 433.048 395.096 431.744C395.032 427.989 377.779 427.886 377.691 422.672C377.649 420.221 380.752 418.642 386.922 418.17Z" fill="white" stroke="#263238" stroke-miterlimit="10" stroke-linecap="round" stroke-linejoin="round"/>
<path d="M386.904 417.194L386.88 415.838L394.102 415.805L394.125 417.161C400.391 417.549 403.626 419.099 403.668 421.576L403.677 422.15L395.333 422.188L395.32 421.432C395.298 420.129 393.685 419.64 390.876 419.653C388.069 419.666 386.471 420.169 386.493 421.472C386.557 425.226 403.81 425.33 403.898 430.544C403.94 433.021 400.678 434.627 394.426 435.073L394.449 436.403L387.228 436.436L387.207 435.106C380.862 434.718 377.625 433.143 377.583 430.665L377.562 429.414L385.906 429.376L385.931 430.81C385.953 432.114 387.726 432.575 390.534 432.562C393.343 432.549 395.099 432.072 395.077 430.768C395.013 427.013 377.76 426.91 377.672 421.696C377.631 419.244 380.735 417.665 386.904 417.194Z" fill="white" stroke="#263238" stroke-miterlimit="10" stroke-linecap="round" stroke-linejoin="round"/>
<path d="M343.449 438.905L343.367 434.062" stroke="#263238" stroke-miterlimit="10" stroke-linecap="round" stroke-linejoin="round"/>
<path d="M347.415 441.113L347.34 436.664" stroke="#263238" stroke-miterlimit="10" stroke-linecap="round" stroke-linejoin="round"/>
<path d="M351.687 443.186L351.605 438.344" stroke="#263238" stroke-miterlimit="10" stroke-linecap="round" stroke-linejoin="round"/>
<path d="M357.534 445.25L357.445 440.016" stroke="#263238" stroke-miterlimit="10" stroke-linecap="round" stroke-linejoin="round"/>
<path d="M364.426 444.127L364.387 441.82" stroke="#263238" stroke-miterlimit="10" stroke-linecap="round" stroke-linejoin="round"/>
<path d="M364.476 446.924L364.461 446.008" stroke="#263238" stroke-miterlimit="10" stroke-linecap="round" stroke-linejoin="round"/>
<path d="M373.453 448.448L373.367 443.344" stroke="#263238" stroke-miterlimit="10" stroke-linecap="round" stroke-linejoin="round"/>
<path d="M385.343 445.645L385.312 443.812" stroke="#263238" stroke-miterlimit="10" stroke-linecap="round" stroke-linejoin="round"/>
<path d="M385.404 449.182L385.379 447.742" stroke="#263238" stroke-miterlimit="10" stroke-linecap="round" stroke-linejoin="round"/>
<path d="M431.855 419.211C424.826 412.824 405.953 408.306 383.839 408.408C363.187 408.503 345.5 412.602 337.702 418.397L333.324 418.359L333.438 425.111C333.592 434.207 356.406 441.476 384.395 441.347C412.384 441.218 434.949 433.74 434.796 424.644L434.705 419.236L431.855 419.211Z" fill="white" stroke="#263238" stroke-miterlimit="10" stroke-linecap="round" stroke-linejoin="round"/>
<path d="M434.706 419.238C434.86 428.334 412.294 435.812 384.305 435.941C356.316 436.07 333.501 428.801 333.348 419.705C333.194 410.609 355.759 403.131 383.749 403.002C411.738 402.873 434.552 410.142 434.706 419.238Z" fill="white" stroke="#263238" stroke-miterlimit="10" stroke-linecap="round" stroke-linejoin="round"/>
<path d="M427.368 419.27C427.5 427.049 408.2 433.445 384.262 433.556C360.324 433.666 340.812 427.449 340.68 419.67C340.549 411.891 359.848 405.495 383.786 405.384C407.724 405.274 427.237 411.491 427.368 419.27Z" fill="white" stroke="#263238" stroke-miterlimit="10" stroke-linecap="round" stroke-linejoin="round"/>
<path d="M380.26 410.17L380.237 408.814L387.458 408.781L387.481 410.137C393.747 410.525 396.982 412.075 397.024 414.552L397.034 415.126L388.69 415.165L388.677 414.409C388.655 413.106 387.042 412.617 384.233 412.63C381.425 412.643 379.828 413.146 379.85 414.449C379.913 418.204 397.166 418.307 397.255 423.521C397.297 425.998 394.035 427.604 387.783 428.05L387.805 429.38L380.584 429.413L380.562 428.083C374.217 427.695 370.981 426.119 370.939 423.642L370.918 422.391L379.261 422.352L379.285 423.786C379.307 425.09 381.08 425.551 383.888 425.538C386.697 425.525 388.454 425.048 388.432 423.744C388.368 419.989 371.115 419.886 371.027 414.672C370.987 412.221 374.09 410.642 380.26 410.17Z" fill="white" stroke="#263238" stroke-miterlimit="10" stroke-linecap="round" stroke-linejoin="round"/>
<path d="M380.242 409.202L380.219 407.845L387.44 407.812L387.463 409.168C393.729 409.556 396.964 411.106 397.006 413.583L397.016 414.158L388.672 414.195L388.659 413.44C388.637 412.137 387.024 411.647 384.215 411.66C381.408 411.673 379.81 412.176 379.832 413.479C379.895 417.233 397.148 417.338 397.237 422.552C397.279 425.029 394.017 426.635 387.765 427.081L387.788 428.41L380.567 428.444L380.545 427.113C374.2 426.725 370.964 425.151 370.923 422.673L370.902 421.422L379.245 421.384L379.269 422.818C379.291 424.122 381.064 424.582 383.872 424.569C386.681 424.556 388.438 424.08 388.416 422.776C388.352 419.021 371.099 418.917 371.011 413.703C370.97 411.251 374.073 409.673 380.242 409.202Z" fill="white" stroke="#263238" stroke-miterlimit="10" stroke-linecap="round" stroke-linejoin="round"/>
<path d="M336.785 430.912L336.703 426.07" stroke="#263238" stroke-miterlimit="10" stroke-linecap="round" stroke-linejoin="round"/>
<path d="M340.751 433.113L340.676 428.664" stroke="#263238" stroke-miterlimit="10" stroke-linecap="round" stroke-linejoin="round"/>
<path d="M345.023 435.186L344.941 430.344" stroke="#263238" stroke-miterlimit="10" stroke-linecap="round" stroke-linejoin="round"/>
<path d="M350.87 437.257L350.781 432.023" stroke="#263238" stroke-miterlimit="10" stroke-linecap="round" stroke-linejoin="round"/>
<path d="M357.762 436.127L357.723 433.82" stroke="#263238" stroke-miterlimit="10" stroke-linecap="round" stroke-linejoin="round"/>
<path d="M357.809 438.924L357.793 438.008" stroke="#263238" stroke-miterlimit="10" stroke-linecap="round" stroke-linejoin="round"/>
<path d="M366.789 440.456L366.703 435.352" stroke="#263238" stroke-miterlimit="10" stroke-linecap="round" stroke-linejoin="round"/>
<path d="M378.679 437.652L378.648 435.82" stroke="#263238" stroke-miterlimit="10" stroke-linecap="round" stroke-linejoin="round"/>
<path d="M378.739 441.182L378.715 439.742" stroke="#263238" stroke-miterlimit="10" stroke-linecap="round" stroke-linejoin="round"/>
<path d="M435.472 411.219C428.443 404.832 409.57 400.314 387.456 400.416C366.804 400.511 349.117 404.61 341.319 410.405L336.941 410.367L337.055 417.119C337.209 426.215 360.023 433.484 388.012 433.355C416.001 433.226 438.567 425.748 438.413 416.652L438.322 411.244L435.472 411.219Z" fill="white" stroke="#263238" stroke-miterlimit="10" stroke-linecap="round" stroke-linejoin="round"/>
<path d="M387.715 427.936C415.705 427.846 438.371 420.4 438.342 411.303C438.313 402.206 415.599 394.905 387.61 394.994C359.62 395.084 336.953 402.531 336.982 411.627C337.012 420.724 359.725 428.026 387.715 427.936Z" fill="white" stroke="#263238" stroke-miterlimit="10" stroke-linecap="round" stroke-linejoin="round"/>
<path d="M430.989 411.278C431.121 419.057 411.821 425.453 387.883 425.564C363.945 425.674 344.433 419.457 344.301 411.678C344.17 403.899 363.469 397.503 387.407 397.392C411.345 397.282 430.858 403.499 430.989 411.278Z" fill="white" stroke="#263238" stroke-miterlimit="10" stroke-linecap="round" stroke-linejoin="round"/>
<path d="M383.875 402.178L383.852 400.822L391.073 400.789L391.096 402.145C397.362 402.533 400.597 404.083 400.639 406.56L400.649 407.134L392.305 407.173L392.292 406.417C392.27 405.114 390.657 404.625 387.849 404.638C385.041 404.651 383.444 405.154 383.466 406.457C383.53 410.212 400.783 410.315 400.871 415.529C400.913 418.006 397.651 419.612 391.399 420.058L391.421 421.388L384.2 421.421L384.178 420.091C377.833 419.703 374.597 418.127 374.556 415.65L374.535 414.399L382.878 414.36L382.902 415.794C382.924 417.098 384.697 417.559 387.505 417.546C390.314 417.533 392.071 417.056 392.049 415.752C391.986 411.997 374.733 411.894 374.644 406.68C374.602 404.229 377.705 402.65 383.875 402.178Z" fill="white" stroke="#263238" stroke-miterlimit="10" stroke-linecap="round" stroke-linejoin="round"/>
<path d="M383.861 401.202L383.838 399.845L391.059 399.812L391.082 401.168C397.348 401.556 400.583 403.106 400.625 405.583L400.635 406.158L392.292 406.195L392.279 405.44C392.257 404.137 390.644 403.647 387.835 403.66C385.027 403.673 383.43 404.176 383.452 405.479C383.515 409.233 400.769 409.338 400.857 414.552C400.899 417.029 397.637 418.635 391.385 419.081L391.407 420.41L384.186 420.444L384.164 419.113C377.819 418.725 374.583 417.151 374.541 414.673L374.52 413.422L382.863 413.384L382.887 414.818C382.909 416.122 384.682 416.582 387.49 416.569C390.299 416.556 392.056 416.08 392.034 414.776C391.97 411.021 374.717 410.917 374.629 405.703C374.589 403.251 377.692 401.673 383.861 401.202Z" fill="white" stroke="#263238" stroke-miterlimit="10" stroke-linecap="round" stroke-linejoin="round"/>
<path d="M340.402 422.912L340.32 418.07" stroke="#263238" stroke-miterlimit="10" stroke-linecap="round" stroke-linejoin="round"/>
<path d="M344.368 425.121L344.293 420.672" stroke="#263238" stroke-miterlimit="10" stroke-linecap="round" stroke-linejoin="round"/>
<path d="M348.643 427.194L348.562 422.352" stroke="#263238" stroke-miterlimit="10" stroke-linecap="round" stroke-linejoin="round"/>
<path d="M354.487 429.257L354.398 424.023" stroke="#263238" stroke-miterlimit="10" stroke-linecap="round" stroke-linejoin="round"/>
<path d="M361.379 428.135L361.34 425.828" stroke="#263238" stroke-miterlimit="10" stroke-linecap="round" stroke-linejoin="round"/>
<path d="M361.43 430.932L361.414 430.016" stroke="#263238" stroke-miterlimit="10" stroke-linecap="round" stroke-linejoin="round"/>
<path d="M370.406 432.456L370.32 427.352" stroke="#263238" stroke-miterlimit="10" stroke-linecap="round" stroke-linejoin="round"/>
<path d="M382.297 429.652L382.266 427.82" stroke="#263238" stroke-miterlimit="10" stroke-linecap="round" stroke-linejoin="round"/>
<path d="M382.356 433.19L382.332 431.75" stroke="#263238" stroke-miterlimit="10" stroke-linecap="round" stroke-linejoin="round"/>
<path d="M437.758 403.211C430.729 396.824 411.857 392.306 389.742 392.408C369.09 392.503 351.403 396.602 343.605 402.397L339.227 402.359L339.341 409.111C339.495 418.207 362.309 425.476 390.298 425.347C418.287 425.218 440.853 417.74 440.699 408.644L440.608 403.236L437.758 403.211Z" fill="white" stroke="#263238" stroke-miterlimit="10" stroke-linecap="round" stroke-linejoin="round"/>
<path d="M440.609 403.238C440.763 412.334 418.197 419.812 390.208 419.941C362.219 420.07 339.404 412.801 339.251 403.705C339.097 394.609 361.662 387.131 389.652 387.002C417.641 386.873 440.455 394.142 440.609 403.238Z" fill="white" stroke="#263238" stroke-miterlimit="10" stroke-linecap="round" stroke-linejoin="round"/>
<path d="M433.271 403.27C433.403 411.049 414.103 417.445 390.165 417.556C366.227 417.666 346.715 411.449 346.583 403.67C346.451 395.891 365.751 389.495 389.689 389.384C413.627 389.274 433.14 395.491 433.271 403.27Z" fill="white" stroke="#263238" stroke-miterlimit="10" stroke-linecap="round" stroke-linejoin="round"/>
<path d="M386.161 394.17L386.138 392.814L393.359 392.781L393.382 394.137C399.648 394.525 402.883 396.075 402.925 398.552L402.935 399.126L394.591 399.165L394.578 398.409C394.556 397.106 392.943 396.617 390.134 396.63C387.326 396.643 385.729 397.146 385.751 398.449C385.815 402.204 403.067 402.307 403.156 407.521C403.198 409.998 399.936 411.604 393.684 412.05L393.706 413.38L386.485 413.413L386.463 412.083C380.118 411.695 376.882 410.119 376.841 407.642L376.82 406.391L385.163 406.352L385.187 407.786C385.209 409.09 386.982 409.551 389.79 409.538C392.599 409.525 394.356 409.048 394.334 407.744C394.271 403.989 377.017 403.886 376.929 398.672C376.888 396.221 379.991 394.642 386.161 394.17Z" fill="white" stroke="#263238" stroke-miterlimit="10" stroke-linecap="round" stroke-linejoin="round"/>
<path d="M386.143 393.202L386.12 391.845L393.341 391.812L393.364 393.168C399.63 393.556 402.865 395.106 402.907 397.583L402.917 398.158L394.573 398.195L394.56 397.44C394.538 396.137 392.925 395.647 390.116 395.66C387.309 395.673 385.711 396.176 385.733 397.479C385.796 401.233 403.049 401.338 403.138 406.552C403.18 409.029 399.918 410.635 393.666 411.081L393.688 412.41L386.467 412.444L386.444 411.113C380.099 410.725 376.863 409.151 376.822 406.673L376.801 405.422L385.144 405.384L385.168 406.818C385.19 408.122 386.963 408.582 389.771 408.569C392.58 408.556 394.337 408.08 394.315 406.776C394.251 403.021 376.998 402.917 376.91 397.703C376.87 395.251 379.973 393.673 386.143 393.202Z" fill="white" stroke="#263238" stroke-miterlimit="10" stroke-linecap="round" stroke-linejoin="round"/>
<path d="M342.687 414.912L342.605 410.07" stroke="#263238" stroke-miterlimit="10" stroke-linecap="round" stroke-linejoin="round"/>
<path d="M346.653 417.113L346.578 412.664" stroke="#263238" stroke-miterlimit="10" stroke-linecap="round" stroke-linejoin="round"/>
<path d="M350.926 419.186L350.844 414.344" stroke="#263238" stroke-miterlimit="10" stroke-linecap="round" stroke-linejoin="round"/>
<path d="M356.773 421.257L356.684 416.023" stroke="#263238" stroke-miterlimit="10" stroke-linecap="round" stroke-linejoin="round"/>
<path d="M363.664 420.127L363.625 417.82" stroke="#263238" stroke-miterlimit="10" stroke-linecap="round" stroke-linejoin="round"/>
<path d="M363.711 422.924L363.695 422.008" stroke="#263238" stroke-miterlimit="10" stroke-linecap="round" stroke-linejoin="round"/>
<path d="M372.691 424.456L372.605 419.352" stroke="#263238" stroke-miterlimit="10" stroke-linecap="round" stroke-linejoin="round"/>
<path d="M384.582 421.652L384.551 419.82" stroke="#263238" stroke-miterlimit="10" stroke-linecap="round" stroke-linejoin="round"/>
<path d="M384.642 425.182L384.617 423.742" stroke="#263238" stroke-miterlimit="10" stroke-linecap="round" stroke-linejoin="round"/>
<path d="M432.984 395.211C425.955 388.824 407.082 384.306 384.968 384.408C364.316 384.503 346.629 388.602 338.831 394.397L334.453 394.359L334.567 401.111C334.721 410.207 357.535 417.476 385.524 417.347C413.513 417.218 436.079 409.74 435.925 400.644L435.834 395.236L432.984 395.211Z" fill="white" stroke="#263238" stroke-miterlimit="10" stroke-linecap="round" stroke-linejoin="round"/>
<path d="M435.835 395.238C435.989 404.334 413.424 411.812 385.434 411.941C357.445 412.07 334.63 404.801 334.477 395.705C334.323 386.609 356.888 379.131 384.878 379.002C412.867 378.873 435.681 386.142 435.835 395.238Z" fill="white" stroke="#263238" stroke-miterlimit="10" stroke-linecap="round" stroke-linejoin="round"/>
<path d="M428.497 395.27C428.629 403.049 409.329 409.445 385.391 409.556C361.453 409.666 341.941 403.449 341.809 395.67C341.678 387.891 360.977 381.495 384.915 381.384C408.854 381.274 428.366 387.491 428.497 395.27Z" fill="white" stroke="#263238" stroke-miterlimit="10" stroke-linecap="round" stroke-linejoin="round"/>
<path d="M381.387 386.17L381.364 384.814L388.585 384.781L388.608 386.137C394.874 386.525 398.109 388.075 398.151 390.552L398.161 391.126L389.817 391.165L389.804 390.409C389.782 389.106 388.169 388.617 385.361 388.63C382.553 388.643 380.956 389.146 380.978 390.449C381.042 394.204 398.295 394.307 398.383 399.521C398.425 401.998 395.163 403.604 388.911 404.05L388.933 405.38L381.712 405.413L381.69 404.083C375.345 403.695 372.109 402.119 372.068 399.642L372.047 398.391L380.39 398.352L380.414 399.786C380.436 401.09 382.209 401.551 385.017 401.538C387.826 401.525 389.583 401.048 389.561 399.744C389.498 395.989 372.245 395.886 372.156 390.672C372.115 388.221 375.218 386.642 381.387 386.17Z" fill="white" stroke="#263238" stroke-miterlimit="10" stroke-linecap="round" stroke-linejoin="round"/>
<path d="M381.37 385.202L381.347 383.845L388.568 383.812L388.591 385.168C394.857 385.556 398.092 387.106 398.134 389.583L398.144 390.158L389.801 390.195L389.788 389.44C389.766 388.137 388.153 387.647 385.345 387.66C382.537 387.673 380.94 388.176 380.962 389.479C381.026 393.233 398.279 393.338 398.367 398.552C398.409 401.029 395.147 402.635 388.895 403.081L388.917 404.41L381.696 404.444L381.674 403.113C375.329 402.725 372.093 401.151 372.052 398.673L372.031 397.422L380.374 397.384L380.398 398.818C380.42 400.122 382.193 400.582 385.001 400.569C387.81 400.556 389.567 400.08 389.545 398.776C389.481 395.021 372.229 394.917 372.14 389.703C372.097 387.251 375.2 385.673 381.37 385.202Z" fill="white" stroke="#263238" stroke-miterlimit="10" stroke-linecap="round" stroke-linejoin="round"/>
<path d="M337.913 406.912L337.832 402.07" stroke="#263238" stroke-miterlimit="10" stroke-linecap="round" stroke-linejoin="round"/>
<path d="M341.88 409.113L341.805 404.664" stroke="#263238" stroke-miterlimit="10" stroke-linecap="round" stroke-linejoin="round"/>
<path d="M346.152 411.186L346.07 406.344" stroke="#263238" stroke-miterlimit="10" stroke-linecap="round" stroke-linejoin="round"/>
<path d="M352.002 413.257L351.914 408.023" stroke="#263238" stroke-miterlimit="10" stroke-linecap="round" stroke-linejoin="round"/>
<path d="M358.891 412.127L358.852 409.82" stroke="#263238" stroke-miterlimit="10" stroke-linecap="round" stroke-linejoin="round"/>
<path d="M358.941 414.924L358.926 414.008" stroke="#263238" stroke-miterlimit="10" stroke-linecap="round" stroke-linejoin="round"/>
<path d="M367.919 416.456L367.832 411.352" stroke="#263238" stroke-miterlimit="10" stroke-linecap="round" stroke-linejoin="round"/>
<path d="M379.808 413.652L379.777 411.82" stroke="#263238" stroke-miterlimit="10" stroke-linecap="round" stroke-linejoin="round"/>
<path d="M379.868 417.182L379.844 415.742" stroke="#263238" stroke-miterlimit="10" stroke-linecap="round" stroke-linejoin="round"/>
</svg>
